<?xml version="1.0" encoding="utf-8" ?>
<svg xmlns="http://www.w3.org/2000/svg" xmlns:xlink="http://www.w3.org/1999/xlink" width="1024" height="1024">
	<defs>
		<linearGradient id="gradient_0" gradientUnits="userSpaceOnUse" x1="836.57288" y1="742.89606" x2="163.76486" y2="210.77896">
			<stop offset="0" stop-color="#295385"/>
			<stop offset="1" stop-color="#4AA4D2"/>
		</linearGradient>
	</defs>
	<path fill="url(#gradient_0)" d="M590.37 924.55C585.514 927.147 579.416 928.827 574.211 930.696Q546.154 940.622 517.512 948.704C508.421 951.173 493.512 945.271 484.343 942.464Q466.583 937.165 449.144 930.89Q431.706 924.615 414.642 917.383Q397.577 910.151 380.94 901.984Q364.303 893.818 348.144 884.742C254.959 831.699 159.441 737.063 130.557 631.224C127.191 618.89 125.01 606.546 124.345 593.758C123.251 572.697 124.122 551.241 124.167 530.126L124.159 418.309L124.075 312.807Q124.117 298.391 124.012 283.976C123.944 278.27 123.463 272.292 123.806 266.608Q123.9 265.244 124.154 263.9Q124.408 262.556 124.817 261.251Q125.227 259.946 125.786 258.698Q126.346 257.451 127.048 256.277C128.825 253.344 131.736 250.67 134.809 249.151C142.865 245.17 151.283 241.75 159.424 237.907Q191.957 222.257 224.675 207L402.31 123.548C428.559 111.282 454.523 98.4564 480.858 86.3568C489.905 82.1999 502.153 75.4333 511.568 73.0291C512.933 73.333 514.22 73.7776 515.518 74.2965C523.967 77.6718 532.348 82.1106 540.633 85.9371Q567.545 98.2394 594.33 110.815L746.5 181.991L847.416 229.773Q860.778 236.109 874.222 242.268C879.398 244.657 884.894 246.861 889.841 249.683C893.849 251.969 896.779 255.199 898.499 259.506C899.406 261.78 899.679 264.078 899.721 266.507C900.184 292.939 899.713 319.455 899.639 345.894L899.638 469.514L899.69 550.13C899.703 564.004 900.543 578.358 899.472 592.168C897.832 613.325 892.901 636.295 884.84 655.937C883.586 659.357 882.441 662.897 880.807 666.154C878.504 673.563 874.714 680.653 871.384 687.642C846.131 740.643 805.628 786.607 761.46 824.686C760.525 825.483 759.624 826.286 758.604 826.975C754.774 830.705 749.971 834.878 745.438 837.712C736.488 844.878 721.797 856.329 712.022 861.85C710.085 863.303 708.129 864.638 706.085 865.934C702.13 868.454 698.209 871.119 694.059 873.306C691.116 875.678 687.386 877.606 684.028 879.347C679.84 881.982 675.387 884.755 670.885 886.824C669.038 888.097 667.107 889.089 665.112 890.099C662.234 891.639 659.373 893.228 656.466 894.712L652.333 896.777C651.073 897.384 649.798 898.079 648.503 898.599L647.572 899.172C636.981 904.64 626.038 909.482 615.149 914.324C607.067 917.918 598.792 921.825 590.37 924.55ZM156.445 271.828L156.554 471.312L156.475 543.439C156.433 561.524 155.804 579.67 157.966 597.663C165.543 660.705 210.212 730.868 254.699 774.727Q260.075 779.963 265.592 785.051Q271.108 790.14 276.76 795.077Q282.412 800.014 288.196 804.796Q293.98 809.578 299.891 814.202Q305.802 818.826 311.836 823.288Q317.871 827.75 324.023 832.047Q330.176 836.344 336.443 840.473Q342.71 844.601 349.087 848.559Q355.464 852.516 361.945 856.299Q368.426 860.083 375.008 863.689Q381.589 867.295 388.266 870.722Q394.943 874.148 401.71 877.393Q408.477 880.637 415.33 883.698Q422.182 886.758 429.115 889.631Q436.048 892.504 443.056 895.189Q450.065 897.873 457.143 900.367C475.112 906.755 493.794 911.74 512.17 916.824C518.248 915.765 524.475 913.327 530.386 911.497C541.034 908.202 551.702 905.032 562.241 901.389C660.507 867.415 752.433 806.455 812.765 720.747C836.7 686.745 856.225 646.834 864.495 605.916C868.203 587.571 867.103 568.999 867.02 550.403L867.082 498.555L866.97 270.96Q748.163 216.859 630.305 160.718L547.59 121.833C535.843 116.174 523.62 110.851 512.271 104.456Q395.309 161.329 277.121 215.61L184.115 258.936C174.882 263.161 165.762 267.815 156.445 271.828Z"/>
	<path fill="#285582" d="M590.37 924.55C591.089 923.218 592.513 922.363 593.848 921.734C596.166 920.64 600.076 917.524 602.507 918.291C602.706 918.354 602.903 918.427 603.101 918.494L603.704 917.948C603.629 916.901 603.692 917.016 604.166 916.176L604.672 916.41C605.198 915.572 605.799 915.213 606.602 914.649C608.189 913.533 610.343 911.604 612.238 911.916L612.733 911.426L612.06 911.142L612.009 910.418L613.037 909.435C614.815 909.832 615.96 909.992 617.676 909.353C618.565 909.021 618.65 909.161 619.063 908.283L617.239 906.145C617.709 905.814 618.318 905.192 618.895 905.171C620.325 905.12 633.825 897.91 636.04 896.636C636.881 896.153 637.478 896.452 638.419 896.566C639.697 895.786 641.054 895.244 642.431 894.668L643.114 894.841L643.772 894.372L644.176 894.989L643.35 896.179L643.691 896.792C645.271 896.65 646.232 895.683 647.531 894.801L648.316 895.349C648.189 896.261 646.563 896.918 646.016 898.11L647.572 899.172C636.981 904.64 626.038 909.482 615.149 914.324C607.067 917.918 598.792 921.825 590.37 924.55Z"/>
	<path fill="#285582" d="M712.022 861.85C711.983 858.585 716.453 857.155 716.925 853.546C716.959 853.281 716.978 853.013 717.005 852.746L717.124 852.983C716.842 851.761 716.373 850.598 716.956 849.409C717.507 849.195 718.218 848.975 718.735 848.67C719.709 848.095 720.001 847.682 721.174 847.561C722.417 847.433 723.004 847.05 724.076 846.428L724.724 846.043L725.545 846.326L724.474 846.869L724.876 848.34L724.165 849.15L725.002 848.811L725.162 849.308C725.82 848.49 726.498 847.775 727.258 847.051C727.526 847.174 727.801 847.281 728.06 847.419C728.344 847.57 728.569 847.868 728.887 847.917C729.769 848.053 737.58 838.909 740.737 838.318C741.739 838.13 742.059 838.205 742.984 837.625C744.459 836.701 742.552 837.676 744.438 836.777L745.438 837.712C736.488 844.878 721.797 856.329 712.022 861.85Z"/>
	<path fill="#285582" d="M670.885 886.824L670.943 885.306C672.823 882.704 676.306 881.853 678.845 879.936C679.253 879.628 679.425 879.429 679.941 879.173C681.524 878.39 682.503 878.741 684.028 879.347C679.84 881.982 675.387 884.755 670.885 886.824Z"/>
	<path fill="#285582" d="M880.807 666.154C880.207 665.134 880.356 665.27 880.303 664.182C880.262 663.355 880.25 662.638 880.398 661.815C880.765 659.776 881.498 656.602 883.272 655.363L884.84 655.937C883.586 659.357 882.441 662.897 880.807 666.154Z"/>
	<path fill="#285582" d="M694.059 873.306C694.315 872.524 694.482 871.677 695.046 871.042C697.546 868.232 702.396 865.781 706.085 865.934C702.13 868.454 698.209 871.119 694.059 873.306Z"/>
	<path fill="#285582" d="M656.466 894.712C656.578 893.546 656.57 892.183 657.499 891.34C659.675 889.367 662.432 889.905 665.112 890.099C662.234 891.639 659.373 893.228 656.466 894.712Z"/>
	<path fill="#285582" d="M648.503 898.599C649.088 897.248 649.461 895.637 650.572 894.634C651.775 895.182 651.734 895.645 652.333 896.777C651.073 897.384 649.798 898.079 648.503 898.599Z"/>
	<path fill="#285582" d="M758.604 826.975C758.175 826.125 758.291 826.467 758.057 825.581C757.829 824.722 758.047 824.731 758.466 824.004C759.884 823.834 760.149 824.06 761.46 824.686C760.525 825.483 759.624 826.286 758.604 826.975Z"/>
	<path fill="#285582" d="M510.552 226.127C520.721 227.744 533.463 232.696 543.492 235.819Q573.572 245.288 603.777 254.347L744.496 297.103Q789.094 311.274 833.952 324.595C821.71 329.122 809.043 332.843 796.689 337.123Q726.635 361.112 656.257 384.136C656.944 387.869 657.494 391.779 657.477 395.581L657.493 421.658C657.5 425.982 657.011 431.05 657.825 435.261L658.421 435.533C656.668 438.085 657.917 456.171 657.957 460.475C624.983 484.468 577.004 488.604 537.513 490.162C527.971 490.538 516.256 489.567 507.127 490.534C473.802 488.904 441.714 484.899 409.21 477.221C394.964 473.856 379.816 469.912 366.855 462.936Q366.819 467.346 366.643 471.752C366.328 463.583 366.607 455.3 366.608 447.117Q366.672 421.964 366.475 396.811L366.44 384.472C357.195 380.033 346.361 377.194 336.585 374.036L284.544 357.282C285.234 376.754 284.93 396.279 285.025 415.763C288.044 418.595 291.128 421.553 291.568 425.909C291.978 429.967 289.737 433.244 287.224 436.171C289.396 442.47 292.24 448.673 294.756 454.847C298.378 463.734 301.842 472.667 305.765 481.427C288.074 481.212 270.482 481.343 252.793 481.518C259.751 466.903 264.295 451.124 271.436 436.552C270.601 435.632 269.754 434.705 269.017 433.703C267.262 431.32 266.323 428.135 266.855 425.187C267.561 421.279 270.208 418.86 273.271 416.636Q273.431 385.112 273.238 353.588C261.602 349.155 249.445 345.581 237.624 341.622C222.253 336.473 206.957 330.985 191.448 326.278C202.065 321.64 214.28 318.986 225.389 315.637C243.247 310.253 261.004 304.445 278.81 298.886L430.443 251.375C457.134 243.004 484.132 235.315 510.552 226.127Z"/>
	<path fill="#285582" d="M510.855 433.382C524.747 428.502 538.8 424.088 552.747 419.37L620.283 396.253C632.247 392.184 644.395 388.482 656.257 384.136C656.944 387.869 657.494 391.779 657.477 395.581L657.493 421.658C657.5 425.982 657.011 431.05 657.825 435.261L658.421 435.533C656.668 438.085 657.917 456.171 657.957 460.475C624.983 484.468 577.004 488.604 537.513 490.162C527.971 490.538 516.256 489.567 507.127 490.534C473.802 488.904 441.714 484.899 409.21 477.221C394.964 473.856 379.816 469.912 366.855 462.936Q366.819 467.346 366.643 471.752C366.328 463.583 366.607 455.3 366.608 447.117Q366.672 421.964 366.475 396.811L366.44 384.472C369.956 386.2 374.198 387.239 377.923 388.496Q389.09 392.212 400.184 396.141C417.707 402.35 435.397 407.83 453.015 413.727C472.326 420.191 491.498 427.054 510.855 433.382Z"/>
	<path fill="#87CCB8" d="M510.855 433.382C524.747 428.502 538.8 424.088 552.747 419.37L620.283 396.253C632.247 392.184 644.395 388.482 656.257 384.136C656.944 387.869 657.494 391.779 657.477 395.581C651.656 398.117 645.364 399.92 639.342 401.942L605.892 413.094L510.33 445.375C503.322 442.254 495.882 440.092 488.62 437.64Q467.795 430.586 446.892 423.767C420.246 414.843 393.496 404.386 366.475 396.811L366.44 384.472C369.956 386.2 374.198 387.239 377.923 388.496Q389.09 392.212 400.184 396.141C417.707 402.35 435.397 407.83 453.015 413.727C472.326 420.191 491.498 427.054 510.855 433.382Z"/>
	<path fill="#285582" d="M366.855 462.936C379.816 469.912 394.964 473.856 409.21 477.221C441.714 484.899 473.802 488.904 507.127 490.534C510.149 492.335 542.218 489.957 543.704 490.694C542.824 491.304 542.264 491.387 541.234 491.608C541.189 492.854 541.481 493.801 541.814 494.989L541.475 495.925C540.42 496.153 539.613 496.211 538.537 496.124C538.361 496.259 538.188 496.397 538.01 496.528C530.046 502.417 523.198 501.093 519.245 510.905C519.209 509.219 519.397 507.127 518.696 505.59L518.053 505.823C517.688 508.86 517.991 512.574 516.482 515.313C515.915 516.343 514.475 517.751 515.017 518.849L515.911 518.891C513.971 522.103 512.425 525.234 511.135 528.759C510.918 529.353 510.687 529.679 510.277 530.15C510.476 528.888 510.714 527.713 511.063 526.48L510.501 526.489C506.913 533.342 506.033 542.523 499.258 547.265L499.18 551.725C499.138 548.506 499.656 534.764 498.561 532.626C497.536 546.87 498.49 561.894 498.511 576.208C498.545 599.713 498.108 623.342 498.742 646.833C498.524 654.025 497.595 667.76 499.006 674.347C498.143 689.529 499.37 704.798 498.627 719.978C498.176 722.532 498.086 724.452 498.683 726.977C498.69 745.001 497.381 755.415 485.824 769.942C482.897 771.024 481.369 772.438 479.415 774.819C474.686 775.601 470.539 780.086 465.445 780.836C460.384 781.58 438.553 781.015 435.981 782.694C433.071 781.327 428.785 781.959 425.637 782.249C419.476 782.694 390.898 782.301 387.624 783.474C384.204 783.45 380.986 783.565 377.604 784.098C360.003 789.613 342.147 797.871 325.639 806.113C296.696 787.416 266.958 757.603 245.644 730.504C245.184 717.246 245.824 703.882 245.856 690.612C247.536 690.132 249.254 689.622 250.81 688.819C255.838 686.222 259.945 681.756 261.436 676.227Q261.55 675.807 261.643 675.382Q261.735 674.957 261.806 674.528Q261.877 674.099 261.926 673.666Q261.975 673.234 262.001 672.8Q262.028 672.366 262.032 671.931Q262.036 671.495 262.018 671.061Q262.001 670.626 261.96 670.193Q261.92 669.76 261.858 669.329Q261.796 668.899 261.712 668.472Q261.628 668.045 261.522 667.623Q261.416 667.201 261.289 666.785Q261.161 666.369 261.013 665.96Q260.865 665.551 260.695 665.15Q260.526 664.75 260.337 664.358Q260.148 663.966 259.939 663.585Q259.729 663.203 259.501 662.833C256.379 657.788 251.437 655.683 245.94 654.288L245.499 563.086C245.426 547.785 246.225 531.94 245.087 516.695C259.325 509.731 273.991 503.093 289.081 498.19C293.482 497.042 297.524 493.54 301.87 491.932C313.722 487.547 327.008 489.172 339.411 488.935Q345.946 485.883 352.724 483.418Q359.503 480.954 366.472 479.096C366.881 476.838 366.611 474.072 366.643 471.752Q366.819 467.346 366.855 462.936ZM461.561 769.098C470.605 766.184 477.883 760.613 482.244 752.05C484.558 747.508 485.417 743.538 485.728 738.48C486.278 729.521 485.891 720.34 485.87 711.36L485.534 652.115L485.553 573.385C485.586 559.391 486.216 545.129 485.621 531.16C485.493 528.135 485.067 525.052 484.094 522.177C481.422 514.28 474.865 507.884 467.349 504.494C463.958 502.965 460.18 502.51 456.499 502.281C447.87 501.745 439.076 502.062 430.424 502.039L384.406 501.932L337.872 501.871C329.608 501.875 321.094 501.549 312.855 502.074C304.779 503.746 298.147 507.632 293.573 514.702C291.493 517.917 289.903 521.328 289.586 525.176C288.711 535.815 289.344 546.865 289.412 557.541L289.678 616.12L289.533 707.22C289.511 715.328 288.48 739.958 290.019 746.622C291.659 753.719 296.909 761.961 303.152 765.842C306.54 767.949 310.719 769.558 314.692 769.904C323.473 770.667 332.78 770.016 341.614 769.974L391.365 769.848Q412.478 769.778 433.591 769.941C442.457 769.99 452.917 771.063 461.561 769.098Z"/>
	<defs>
		<linearGradient id="gradient_1" gradientUnits="userSpaceOnUse" x1="405.96631" y1="748.82007" x2="205.44414" y2="560.7384">
			<stop offset="0" stop-color="#52B4A0"/>
			<stop offset="1" stop-color="#AADCC5"/>
		</linearGradient>
	</defs>
	<path fill="url(#gradient_1)" d="M289.081 498.19C289.112 499.274 289.313 499.077 288.506 499.952C282.643 506.31 278.389 513.142 276.863 521.722C275.506 529.347 276.35 537.999 276.4 545.741L276.491 583.697L276.371 696.166C276.341 713.444 276.833 730.878 276.418 748.138L276.647 750.033C280.012 761.814 286.813 772.064 297.721 778.107Q299.101 778.875 300.543 779.52Q301.985 780.165 303.477 780.683Q304.969 781.2 306.501 781.586Q308.033 781.972 309.592 782.224C317.137 783.499 325.104 783.089 332.74 783.111Q347.906 783.13 363.069 783.39C367.769 783.465 373.001 783.134 377.604 784.098C360.003 789.613 342.147 797.871 325.639 806.113C296.696 787.416 266.958 757.603 245.644 730.504C245.184 717.246 245.824 703.882 245.856 690.612C247.536 690.132 249.254 689.622 250.81 688.819C255.838 686.222 259.945 681.756 261.436 676.227Q261.55 675.807 261.643 675.382Q261.735 674.957 261.806 674.528Q261.877 674.099 261.926 673.666Q261.975 673.234 262.001 672.8Q262.028 672.366 262.032 671.931Q262.036 671.495 262.018 671.061Q262.001 670.626 261.96 670.193Q261.92 669.76 261.858 669.329Q261.796 668.899 261.712 668.472Q261.628 668.045 261.522 667.623Q261.416 667.201 261.289 666.785Q261.161 666.369 261.013 665.96Q260.865 665.551 260.695 665.15Q260.526 664.75 260.337 664.358Q260.148 663.966 259.939 663.585Q259.729 663.203 259.501 662.833C256.379 657.788 251.437 655.683 245.94 654.288L245.499 563.086C245.426 547.785 246.225 531.94 245.087 516.695C259.325 509.731 273.991 503.093 289.081 498.19Z"/>
	<path fill="#FEFEFE" d="M276.647 750.033C275.019 750.132 273.385 750.445 271.896 749.65C271.839 749.422 271.778 749.195 271.725 748.966C271.215 746.753 270.91 717.905 271.197 714.709C271.322 713.312 271.636 712.33 272.382 711.153C273.67 710.432 273.829 710.452 275.312 710.565C276.983 713.176 275.408 741.477 276.335 747.637C276.36 747.804 276.39 747.971 276.418 748.138L276.647 750.033Z"/>
	<path fill="#87CCB8" d="M366.855 462.936C379.816 469.912 394.964 473.856 409.21 477.221C441.714 484.899 473.802 488.904 507.127 490.534C510.149 492.335 542.218 489.957 543.704 490.694C542.824 491.304 542.264 491.387 541.234 491.608C541.189 492.854 541.481 493.801 541.814 494.989L541.475 495.925C540.42 496.153 539.613 496.211 538.537 496.124C538.361 496.259 538.188 496.397 538.01 496.528C530.046 502.417 523.198 501.093 519.245 510.905C519.209 509.219 519.397 507.127 518.696 505.59L518.053 505.823C517.688 508.86 517.991 512.574 516.482 515.313C515.915 516.343 514.475 517.751 515.017 518.849L515.911 518.891C513.971 522.103 512.425 525.234 511.135 528.759C510.918 529.353 510.687 529.679 510.277 530.15C510.476 528.888 510.714 527.713 511.063 526.48L510.501 526.489C506.913 533.342 506.033 542.523 499.258 547.265L499.18 551.725C499.138 548.506 499.656 534.764 498.561 532.626C497.747 522.736 496.231 513.777 489.738 505.886Q488.635 504.555 487.434 503.312Q486.233 502.07 484.94 500.922Q483.647 499.775 482.27 498.731Q480.894 497.686 479.441 496.75Q477.988 495.814 476.468 494.992Q474.947 494.169 473.368 493.466Q471.79 492.763 470.162 492.182Q468.534 491.602 466.866 491.148C456.332 488.277 444.285 489.093 433.439 489.044Q403.018 488.911 372.6 489.378C362.394 489.445 351.504 490.164 341.365 489.139C341.183 489.121 341.001 489.099 340.819 489.078L339.411 488.935Q345.946 485.883 352.724 483.418Q359.503 480.954 366.472 479.096C366.881 476.838 366.611 474.072 366.643 471.752Q366.819 467.346 366.855 462.936Z"/>
	<path fill="#87CCB8" d="M339.411 488.935Q345.946 485.883 352.724 483.418Q359.503 480.954 366.472 479.096C366.972 482.346 367.099 485.596 367.107 488.881C358.36 488.863 349.555 488.639 340.819 489.078L339.411 488.935Z"/>
	<path fill="#285582" d="M455.211 516.749C459.42 516.753 463.109 516.673 466.562 519.504C470.067 522.377 471.322 526.861 471.586 531.219C472.187 541.152 471.419 551.369 471.467 561.339C471.496 567.522 472.517 574.312 471.745 580.415C471.481 582.502 470.743 585.531 468.997 586.929C467.392 588.215 463.803 588.273 461.762 588.382C447.219 589.162 432.315 588.472 417.734 588.518L318.636 588.392C315.932 588.452 313.016 588.695 310.34 588.265C306.474 587.644 304.349 585.69 302.066 582.64C301.405 574.028 301.59 565.16 301.537 556.521C301.472 545.886 301.265 535.218 301.564 524.588C302.37 523.096 303.273 521.675 304.438 520.431C306.323 518.418 308.611 517.442 311.313 517.081C316.931 516.332 322.831 516.711 328.496 516.731L357.609 516.848Q406.41 517.055 455.211 516.749ZM314.626 575.827C362.569 574.992 410.582 576.524 458.508 575.489L459.03 575.023Q459.253 552.077 459.171 529.131C410.996 529.332 362.727 529.564 314.557 529.025C314.645 544.531 315.396 560.355 314.626 575.827Z"/>
	<path fill="#285582" d="M311.864 715.098C319.665 714.75 334.275 713.53 341.351 715.812C343.217 716.414 344.097 717.471 344.935 719.185C347.555 724.537 347.336 741.837 345.307 747.408C344.237 750.344 342.359 751.612 339.647 752.938C332.673 753.162 318.581 754.76 312.432 752.674C309.877 751.807 307.756 750.058 306.594 747.602C303.997 742.113 305.07 723.569 307.069 718.039C308.61 716.844 310.128 715.978 311.864 715.098ZM318.241 741.061C323.346 741.051 329.036 741.488 334.075 740.905L334.035 726.739L318.105 726.745C318.084 731.486 317.847 736.336 318.241 741.061Z"/>
	<path fill="#285582" d="M433.814 660.569C439.219 660.182 457.111 659.491 461.525 661.025C463.992 661.882 465.663 664.214 466.65 666.526C468.97 671.963 468.984 688.374 466.557 693.73C465.345 696.404 463.295 697.367 460.649 698.289C452.199 698.138 440.143 699.607 432.223 697.603C430.161 697.081 428.907 695.685 427.956 693.84C425.49 689.055 425.339 670.741 427.315 665.59C428.382 662.81 431.284 661.665 433.814 660.569ZM455.542 685.931C455.586 681.519 455.342 676.893 455.802 672.514C450.218 672.2 444.671 672.575 439.091 672.49L439.154 686.079C444.353 686.079 450.445 686.654 455.542 685.931Z"/>
	<path fill="#285582" d="M316.608 660.25C322.848 660.173 336.902 658.454 341.997 662.425C344.818 664.623 346.032 668.336 346.423 671.76C347.159 678.215 347.777 690.601 343.27 695.728C341.253 698.023 338.738 698.627 335.813 698.859C329.042 698.937 314.066 700.643 308.689 696.184C306.171 694.097 305.947 691.774 305.767 688.656C305.473 683.563 304.459 666.753 307.719 663.383C310.165 660.855 313.257 660.435 316.608 660.25ZM333.857 685.536L333.975 672.729C328.651 672.761 323.163 673.043 317.856 672.759L317.868 686.925C320.928 686.778 331.7 687.29 333.809 686.091L333.857 685.536Z"/>
	<path fill="#285582" d="M432.784 606.129C439.428 605.788 456.767 604.796 462.328 607.004C464.456 607.849 465.958 610 466.833 612.028C469.034 617.131 469.178 634.187 466.948 639.276C465.908 641.65 463.977 642.593 461.703 643.547C454.506 644.244 446.529 644.323 439.291 644.091C435.694 643.976 432.028 643.337 429.514 640.529C424.938 635.417 426.711 618.428 427.138 611.543C428.73 609.072 430.22 607.614 432.784 606.129ZM438.847 631.779Q447.304 631.714 455.762 631.752L455.83 618.013L438.796 617.97C438.816 622.571 438.889 627.179 438.847 631.779Z"/>
	<path fill="#285582" d="M435.469 715.18C441.983 715.101 458.199 713.558 463.663 716.317C465.388 717.189 466.497 719.797 467.033 721.548C468.807 727.345 469.008 743.135 466.011 748.261C464.478 750.883 462.111 751.722 459.307 752.423C450.639 753.157 441.771 752.727 433.082 752.417C430.813 751.174 428.902 749.867 427.791 747.437C425.006 741.343 425.436 725.195 427.954 718.922C430.4 716.812 432.232 715.665 435.469 715.18ZM438.907 740.488L455.499 740.504L455.564 727.429L438.792 727.465C438.873 731.805 438.995 736.148 438.907 740.488Z"/>
	<path fill="#285582" d="M312.42 606.145C319.087 605.426 334.33 605.036 340.4 606.843C342.445 607.452 343.72 608.814 344.675 610.67C347.285 615.737 347.504 632.487 345.46 637.971C344.471 640.624 341.278 642.011 338.908 643.171C332.991 644.352 318.902 644.854 313.107 643.229C310.486 642.494 308.316 641.053 306.981 638.639C304.722 634.556 304.429 616.251 305.885 611.817C306.911 608.693 309.625 607.461 312.42 606.145ZM318.075 631.769Q326.18 631.748 334.284 631.927Q334.458 624.714 334.438 617.5C329.002 617.291 323.623 617.381 318.189 617.54Q317.941 624.653 318.075 631.769Z"/>
	<path fill="#285582" d="M375.722 660.178C382.222 660.363 395.664 658.693 401.162 661.43C403.536 662.611 404.944 665.525 405.641 667.945C407.283 673.653 407.574 689.324 404.52 694.342C402.991 696.855 400.621 697.495 397.92 698.137C389.698 698.068 381.522 698.371 373.306 698.488C372.386 697.97 371.463 697.449 370.585 696.864C367.676 694.928 366.189 692.209 365.681 688.793C364.73 682.405 364.47 668.606 368.465 663.453C370.404 660.952 372.727 660.518 375.722 660.178ZM393.979 685.84C393.414 681.482 393.717 677 393.868 672.617C388.643 672.495 383.415 672.318 378.189 672.457C378.115 676.984 377.961 681.522 378.245 686.044C382.916 686.025 389.477 686.774 393.979 685.84Z"/>
	<path fill="#285582" d="M372.395 715.119C380.432 714.889 392.73 713.33 400.126 715.887C402.522 716.715 403.84 718.065 404.889 720.36C407.545 726.17 407.548 740.719 405.233 746.655C403.95 749.943 401.907 751.156 398.758 752.475C390.311 753.814 380.56 752.809 372.023 752.399C370.066 751.184 368.365 749.924 367.262 747.847C364.521 742.681 364.393 726.305 366.443 720.759C367.598 717.633 369.454 716.438 372.395 715.119ZM377.649 740.406Q385.355 740.503 393.061 740.476L393.072 727.546C387.887 727.587 382.639 727.802 377.461 727.557C377.482 731.823 377.35 736.152 377.649 740.406Z"/>
	<path fill="#285582" d="M373.586 606.123C379.897 605.638 396.143 604.949 401.536 606.906C403.465 607.606 404.471 609.245 405.186 611.071C406.979 615.656 407.394 633.838 405.314 638.371C404.026 641.18 401.565 642.32 398.852 643.438C392.2 644.225 376.128 645.276 370.387 642.165C368.213 640.988 366.937 638.47 366.255 636.192C364.446 630.151 364.345 615.842 367.412 610.346C368.846 607.776 370.862 606.876 373.586 606.123ZM378.004 631.758Q385.212 631.737 392.418 631.596L393.712 631.797C395.46 629.252 394.257 621.126 394.482 617.769Q387.44 617.592 380.397 617.698C379.746 617.816 378.896 617.729 378.521 618.339C376.982 620.846 377.975 628.666 378.004 631.758Z"/>
	<defs>
		<linearGradient id="gradient_2" gradientUnits="userSpaceOnUse" x1="743.90582" y1="680.22754" x2="581.65802" y2="458.84586">
			<stop offset="0" stop-color="#26A480"/>
			<stop offset="1" stop-color="#65C3A9"/>
		</linearGradient>
	</defs>
	<path fill="url(#gradient_2)" d="M657.957 460.475C657.917 456.171 656.668 438.085 658.421 435.533Q717.734 460.528 776.629 486.493C799.033 496.307 821.768 505.355 843.814 515.984Q844.063 533.841 843.921 551.699C843.881 571.93 843.908 592.083 839.622 611.973C811.594 627.615 782.595 641.61 754.439 657.035C751.22 654.121 748.08 652.423 744.065 650.868C743.843 618.547 744.611 586.124 743.908 553.82C750.403 551.449 756.068 548.171 759.281 541.694C761.473 537.276 761.27 532.552 759.589 527.984C757.903 523.402 754.691 519.622 750.145 517.711C745.678 515.833 740.526 515.957 736.073 517.821Q735.615 518.014 735.167 518.229Q734.719 518.445 734.282 518.683Q733.846 518.921 733.422 519.181Q732.998 519.441 732.588 519.722Q732.178 520.004 731.783 520.305Q731.388 520.607 731.008 520.928Q730.629 521.249 730.266 521.589Q729.903 521.929 729.559 522.287Q729.214 522.645 728.887 523.02Q728.561 523.395 728.254 523.787Q727.947 524.178 727.66 524.584Q727.374 524.99 727.108 525.41Q726.842 525.83 726.598 526.264Q726.354 526.697 726.132 527.142Q725.91 527.587 725.711 528.042Q725.513 528.498 725.337 528.963C723.745 533.102 723.595 537.85 725.445 541.927C727.991 547.538 733.004 550.778 738.383 553.261C739.059 578.615 738.447 604.05 738.734 629.42C738.813 636.366 738.566 643.388 738.913 650.32C732.732 652.427 727.261 655.075 724.364 661.363C722.487 665.438 722.35 669.617 722.574 674.008C715.574 678.483 707.833 682.142 700.411 685.886C688.06 692.116 675.621 698.194 663.344 704.57C660.597 703.273 657.869 701.927 655.021 700.861L655.093 556.515C661.505 554.073 666.531 551.379 669.508 544.789C671.462 540.466 671.705 535.573 669.877 531.166C667.885 526.363 663.645 522.463 658.769 520.705C654.203 519.058 649.181 519.459 644.82 521.54Q644.382 521.745 643.955 521.971Q643.528 522.198 643.113 522.447Q642.699 522.696 642.298 522.966Q641.896 523.236 641.51 523.526Q641.123 523.816 640.752 524.126Q640.381 524.436 640.026 524.765Q639.672 525.094 639.335 525.441Q638.998 525.787 638.679 526.151Q638.36 526.515 638.061 526.894Q637.761 527.274 637.482 527.669Q637.203 528.063 636.944 528.472Q636.686 528.881 636.449 529.302Q636.212 529.724 635.997 530.157Q635.782 530.59 635.59 531.034Q635.398 531.478 635.229 531.931Q635.06 532.384 634.915 532.845C633.443 537.626 634.056 542.261 636.455 546.645C639.305 551.852 643.77 554.597 649.264 556.398C649.981 585.055 649.507 613.829 649.553 642.5L649.653 682.687C649.68 688.447 650.008 694.265 649.849 700.014C644.562 702.059 640.73 704.217 636.813 708.46C618.548 700.576 600.524 692.22 582.207 684.433C581.657 663.343 582.494 642.225 582.281 621.13C585.012 619.255 587.821 617.565 588.517 614.057C588.924 612.005 588.475 610.107 587.246 608.419C585.728 606.335 583.227 604.94 580.674 604.654Q580.241 604.603 579.806 604.597Q579.37 604.591 578.937 604.63Q578.503 604.669 578.075 604.753Q577.648 604.837 577.231 604.964Q576.815 605.092 576.414 605.262Q576.013 605.432 575.632 605.643Q575.25 605.853 574.893 606.102Q574.536 606.351 574.206 606.636C572.36 608.225 570.811 610.937 570.828 613.422C570.853 616.907 573.714 619.518 576.041 621.737C576.233 635.608 576.075 649.471 576.167 663.342C576.208 669.516 575.848 676.003 576.471 682.129C559.889 674.287 542.846 667.434 526.303 659.557C524.039 653.637 521.396 648.191 515.226 645.464C509.936 643.127 504.94 644.25 499.825 646.371Q499.282 646.598 498.742 646.833C498.108 623.342 498.545 599.713 498.511 576.208C498.49 561.894 497.536 546.87 498.561 532.626C499.656 534.764 499.138 548.506 499.18 551.725L499.258 547.265C506.033 542.523 506.913 533.342 510.501 526.489L511.063 526.48C510.714 527.713 510.476 528.888 510.277 530.15C510.687 529.679 510.918 529.353 511.135 528.759C512.425 525.234 513.971 522.103 515.911 518.891L515.017 518.849C514.475 517.751 515.915 516.343 516.482 515.313C517.991 512.574 517.688 508.86 518.053 505.823L518.696 505.59C519.397 507.127 519.209 509.219 519.245 510.905C523.198 501.093 530.046 502.417 538.01 496.528C538.188 496.397 538.361 496.259 538.537 496.124C539.613 496.211 540.42 496.153 541.475 495.925L541.814 494.989C541.481 493.801 541.189 492.854 541.234 491.608C542.264 491.387 542.824 491.304 543.704 490.694C542.218 489.957 510.149 492.335 507.127 490.534C516.256 489.567 527.971 490.538 537.513 490.162C577.004 488.604 624.983 484.468 657.957 460.475ZM539.988 633.981C542.304 633.073 544.089 632.082 545.18 629.735Q545.342 629.381 545.466 629.012Q545.59 628.643 545.676 628.263Q545.761 627.883 545.806 627.497Q545.852 627.11 545.857 626.721Q545.862 626.332 545.827 625.944Q545.791 625.556 545.716 625.174Q545.641 624.792 545.526 624.42Q545.411 624.048 545.259 623.69C544.39 621.648 542.561 620.021 540.48 619.276C539.247 618.835 538.056 618.927 536.78 619C534.069 620.705 531.721 622.391 530.969 625.689C530.601 627.305 530.714 629.03 531.604 630.469C532.756 632.332 535.056 633.462 537.158 633.805Q538.564 634.034 539.988 633.981ZM694.358 660.063C697.003 658.541 699.057 657.309 699.89 654.213C700.389 652.359 700.324 650.466 699.246 648.828C698.096 647.082 696.031 645.955 693.993 645.645C693.548 645.577 693.098 645.55 692.65 645.515C690.188 646.479 688.352 647.382 687.16 649.861C686.251 651.75 686.078 654.072 686.909 656.018C687.639 657.726 689.254 659.242 691.03 659.817C692.085 660.158 693.267 660.131 694.358 660.063ZM620.751 673.945Q620.918 673.928 621.084 673.902Q621.25 673.876 621.415 673.843Q621.58 673.809 621.743 673.767Q621.905 673.726 622.066 673.676Q622.227 673.626 622.384 673.569Q622.542 673.511 622.697 673.446Q622.852 673.381 623.004 673.309Q623.155 673.236 623.303 673.156Q623.451 673.076 623.595 672.989Q623.738 672.901 623.878 672.807Q624.017 672.713 624.151 672.612Q624.286 672.511 624.415 672.404Q624.545 672.297 624.669 672.183Q624.792 672.07 624.911 671.95Q625.029 671.831 625.141 671.706Q625.253 671.58 625.359 671.45Q625.465 671.319 625.564 671.184Q625.664 671.048 625.756 670.908Q625.849 670.768 625.935 670.623Q626.02 670.479 626.099 670.33Q626.177 670.181 626.248 670.029Q626.319 669.876 626.383 669.721Q626.446 669.565 626.502 669.407Q626.558 669.248 626.606 669.087Q626.654 668.926 626.694 668.763Q626.734 668.599 626.765 668.434Q626.797 668.269 626.821 668.103Q626.845 667.937 626.86 667.769Q626.876 667.602 626.883 667.434Q626.891 667.266 626.89 667.098Q626.889 666.93 626.88 666.762Q626.87 666.594 626.853 666.427Q626.836 666.26 626.81 666.094Q626.785 665.928 626.751 665.763Q626.717 665.598 626.675 665.435Q626.634 665.273 626.584 665.112Q626.534 664.951 626.477 664.794Q626.419 664.636 626.354 664.481Q626.289 664.326 626.216 664.174Q626.143 664.023 626.063 663.875Q625.983 663.727 625.896 663.583Q625.809 663.44 625.715 663.3Q625.621 663.161 625.52 663.027Q625.419 662.892 625.312 662.763Q625.204 662.634 625.091 662.51Q624.977 662.386 624.858 662.268Q624.738 662.149 624.613 662.037Q624.488 661.925 624.357 661.819Q624.227 661.713 624.091 661.614Q623.956 661.514 623.815 661.422Q623.675 661.329 623.53 661.244Q623.386 661.158 623.237 661.08Q623.088 661.001 622.936 660.93Q622.784 660.859 622.628 660.796Q622.472 660.732 622.314 660.676Q622.155 660.621 621.994 660.573Q621.833 660.525 621.67 660.485Q621.506 660.445 621.341 660.413Q621.176 660.381 621.01 660.358Q620.844 660.334 620.676 660.318Q620.509 660.303 620.341 660.296Q620.173 660.288 620.005 660.289Q619.837 660.29 619.669 660.299Q619.501 660.309 619.334 660.326Q619.167 660.343 619.001 660.369Q618.835 660.395 618.67 660.428Q618.505 660.462 618.343 660.504Q618.18 660.546 618.019 660.595Q617.859 660.645 617.701 660.702Q617.543 660.76 617.388 660.825Q617.233 660.89 617.082 660.963Q616.93 661.036 616.782 661.116Q616.635 661.196 616.491 661.283Q616.347 661.37 616.208 661.464Q616.069 661.558 615.935 661.659Q615.8 661.76 615.671 661.868Q615.541 661.975 615.418 662.089Q615.294 662.202 615.176 662.322Q615.057 662.441 614.945 662.566Q614.833 662.691 614.727 662.822Q614.621 662.952 614.522 663.088Q614.422 663.223 614.33 663.364Q614.237 663.504 614.152 663.648Q614.066 663.793 613.988 663.942Q613.909 664.09 613.838 664.243Q613.767 664.395 613.704 664.551Q613.641 664.706 613.585 664.865Q613.529 665.023 613.481 665.184Q613.433 665.345 613.393 665.509Q613.353 665.672 613.322 665.837Q613.29 666.002 613.266 666.168Q613.242 666.335 613.227 666.502Q613.211 666.669 613.204 666.837Q613.196 667.005 613.197 667.173Q613.198 667.341 613.207 667.509Q613.217 667.677 613.234 667.844Q613.251 668.011 613.277 668.177Q613.302 668.343 613.336 668.508Q613.37 668.672 613.412 668.835Q613.453 668.998 613.503 669.159Q613.553 669.319 613.61 669.477Q613.668 669.635 613.733 669.79Q613.798 669.945 613.871 670.096Q613.943 670.248 614.023 670.396Q614.103 670.543 614.19 670.687Q614.278 670.831 614.372 670.97Q614.466 671.109 614.567 671.244Q614.668 671.378 614.775 671.507Q614.882 671.637 614.996 671.76Q615.109 671.884 615.229 672.003Q615.348 672.121 615.473 672.233Q615.599 672.345 615.729 672.451Q615.86 672.557 615.995 672.656Q616.131 672.756 616.271 672.848Q616.411 672.941 616.556 673.026Q616.7 673.112 616.849 673.191Q616.997 673.269 617.15 673.34Q617.302 673.411 617.458 673.474Q617.613 673.538 617.772 673.594Q617.93 673.65 618.091 673.697Q618.252 673.745 618.416 673.785Q618.579 673.825 618.744 673.857Q618.909 673.889 619.075 673.913Q619.242 673.937 619.409 673.952Q619.576 673.968 619.744 673.975Q619.912 673.982 620.08 673.981Q620.248 673.981 620.416 673.971Q620.584 673.962 620.751 673.945Z"/>
	<path fill="#87CCB8" d="M239.634 519.417L240.605 519.697C241.759 522.753 240.972 552.443 240.995 559.233Q241 606.611 241.659 653.986C237.268 655.888 233.014 657.947 230.102 661.924C226.95 666.227 226.894 670.566 227.768 675.566C222.257 677.561 216.916 679.769 211.565 682.159C207.663 675.735 204.359 668.959 201.035 662.226C189.661 638.107 180.805 611.877 178.791 585.139C177.817 572.203 178.36 558.771 178.876 545.811C191.376 539.666 204.344 534.464 217.148 528.997C224.586 525.821 232.006 522.076 239.634 519.417Z"/>
	<path fill="#2CA280" d="M724.147 678.894C724.927 679.216 724.624 679.015 725.271 679.604C729.617 683.562 733.177 685.681 738.91 687.081L739.445 749.221C738.23 749.984 736.897 750.802 735.838 751.777C733.581 753.853 733.594 756.936 733.389 759.759C726.34 763.592 718.663 766.708 711.365 770.056C695.817 777.189 680.2 784.126 664.764 791.505C661.408 793.07 657.989 794.452 654.556 795.837C654.588 776.374 655.165 756.809 654.479 737.361Q655.205 737.093 655.926 736.809C661.217 734.713 665.841 731.236 668.011 725.81C670.475 719.649 668.934 714.028 666.469 708.228C673.695 705.122 680.695 701.287 687.691 697.698L724.147 678.894ZM706.799 742.076C709.197 741.259 711.372 740.087 712.469 737.666C713.251 735.942 713.3 734.016 712.491 732.291C711.675 730.554 709.853 728.978 708.005 728.439C707.087 728.171 706.079 728.078 705.128 727.989C702.661 728.995 700.374 730.095 699.265 732.683C698.514 734.436 698.358 736.436 699.194 738.188C700.017 739.914 701.818 741.292 703.658 741.769C704.669 742.031 705.761 742.056 706.799 742.076Z"/>
	<defs>
		<linearGradient id="gradient_3" gradientUnits="userSpaceOnUse" x1="570.90247" y1="873.29633" x2="482.0816" y2="750.87903">
			<stop offset="0" stop-color="#1B9275"/>
			<stop offset="1" stop-color="#38B088"/>
		</linearGradient>
	</defs>
	<path fill="url(#gradient_3)" d="M479.415 774.819C497.811 776.047 520.075 773.957 538.56 771.982C545.77 771.212 552.996 770.108 560.229 769.625C563.436 776.842 567.039 780.416 574.197 783.836C573.934 813.45 573.312 843.373 574.089 872.974C564.918 876.82 555.437 880.122 546.047 883.397Q545.798 859.503 545.931 835.608C534.53 828.665 521.936 823.595 510.237 817.133C509.679 811.36 508.088 806.712 503.458 802.846C500.042 799.994 495.627 798.362 491.155 798.833C485.679 799.409 481.497 802.661 477.782 806.474C463.724 798.881 450.2 789.889 435.981 782.694C438.553 781.015 460.384 781.58 465.445 780.836C470.539 780.086 474.686 775.601 479.415 774.819ZM542.759 804.182Q542.94 804.128 543.118 804.065Q543.296 804.003 543.471 803.932Q543.645 803.86 543.816 803.781Q543.987 803.701 544.154 803.613Q544.321 803.525 544.484 803.429Q544.646 803.334 544.804 803.23Q544.962 803.126 545.114 803.015Q545.266 802.904 545.413 802.785Q545.56 802.667 545.701 802.541Q545.842 802.416 545.976 802.283Q546.111 802.151 546.239 802.012Q546.367 801.874 546.488 801.729Q546.609 801.584 546.723 801.434Q546.837 801.283 546.943 801.128Q547.05 800.972 547.148 800.811Q547.247 800.65 547.338 800.485Q547.429 800.319 547.511 800.15Q547.594 799.98 547.668 799.806Q547.742 799.633 547.808 799.456Q547.874 799.279 547.931 799.099Q547.988 798.919 548.036 798.737Q548.084 798.554 548.123 798.37Q548.163 798.185 548.193 797.999Q548.223 797.813 548.244 797.625Q548.265 797.438 548.277 797.249Q548.289 797.061 548.292 796.872Q548.295 796.684 548.288 796.495Q548.282 796.307 548.266 796.118Q548.25 795.93 548.226 795.743Q548.201 795.556 548.167 795.371Q548.133 795.185 548.091 795.001Q548.048 794.817 547.996 794.636Q547.944 794.454 547.884 794.276Q547.823 794.097 547.754 793.922Q547.685 793.746 547.607 793.574Q547.53 793.402 547.444 793.234Q547.358 793.066 547.264 792.902Q547.17 792.739 547.068 792.58Q546.966 792.421 546.857 792.267Q546.747 792.113 546.63 791.965Q546.514 791.817 546.39 791.675Q546.266 791.532 546.135 791.396Q546.004 791.26 545.867 791.131Q545.73 791.001 545.587 790.878Q545.443 790.755 545.294 790.64Q545.145 790.524 544.991 790.416Q544.836 790.308 544.677 790.207Q544.517 790.106 544.353 790.014Q544.188 789.921 544.019 789.836Q543.851 789.752 543.678 789.676Q543.506 789.599 543.329 789.532Q543.153 789.464 542.974 789.405Q542.795 789.346 542.613 789.295Q542.431 789.245 542.247 789.203Q542.063 789.162 541.877 789.13Q541.691 789.097 541.504 789.074Q541.317 789.051 541.129 789.036Q540.94 789.022 540.752 789.017Q540.563 789.012 540.374 789.017Q540.186 789.021 539.998 789.034Q539.809 789.048 539.622 789.07Q539.435 789.093 539.249 789.124Q539.063 789.156 538.878 789.197Q538.694 789.237 538.512 789.287Q538.266 789.354 538.024 789.437Q537.782 789.521 537.547 789.62Q537.312 789.719 537.083 789.833Q536.855 789.947 536.634 790.076Q536.414 790.205 536.202 790.349Q535.991 790.492 535.789 790.649Q535.588 790.806 535.397 790.976Q535.206 791.146 535.027 791.328Q534.848 791.51 534.681 791.703Q534.514 791.897 534.361 792.101Q534.207 792.305 534.067 792.518Q533.927 792.732 533.802 792.955Q533.676 793.177 533.566 793.407Q533.455 793.638 533.36 793.875Q533.265 794.112 533.185 794.355Q533.106 794.597 533.043 794.845Q532.98 795.092 532.933 795.344Q532.886 795.595 532.856 795.848Q532.826 796.102 532.813 796.357Q532.8 796.612 532.803 796.868Q532.807 797.123 532.827 797.378Q532.848 797.633 532.885 797.885Q532.922 798.138 532.976 798.388Q533.029 798.638 533.099 798.883Q533.169 799.129 533.256 799.369Q533.342 799.61 533.443 799.844Q533.545 800.078 533.662 800.306Q533.779 800.533 533.911 800.752Q534.042 800.97 534.188 801.18Q534.334 801.39 534.493 801.59Q534.653 801.789 534.825 801.978Q534.997 802.167 535.181 802.344Q535.365 802.521 535.561 802.685Q535.756 802.85 535.962 803.001Q536.168 803.152 536.383 803.29Q536.599 803.427 536.823 803.55Q537.047 803.673 537.278 803.781Q537.51 803.888 537.748 803.981Q537.986 804.073 538.23 804.15Q538.474 804.226 538.722 804.286Q538.97 804.346 539.222 804.39Q539.473 804.434 539.727 804.461Q539.982 804.488 540.237 804.498Q540.492 804.508 540.747 804.502Q541.003 804.495 541.257 804.472Q541.511 804.448 541.764 804.408Q542.016 804.368 542.265 804.312Q542.514 804.255 542.759 804.182Z"/>
	<path fill="#2CA280" d="M836.932 619.126L837.2 619.391C835.881 627.16 832.507 635.153 829.545 642.45C817.45 672.24 801.317 698.743 781.587 724.095L781.603 723.669C781.854 716.609 783.464 679.248 780.167 675.707C779.115 675.498 778.757 675.474 777.907 676.23C777.076 676.969 776.308 678.384 776.097 679.457C775.285 683.59 776.042 689.336 776.05 693.626C776.072 706.077 776.423 718.691 775.724 731.119C774.323 733.469 772.634 735.417 770.838 737.46C764.578 744.3 759.157 751.625 752.472 758.133C752.007 756.572 751.544 754.916 750.84 753.447C749.503 750.657 746.989 749.834 744.218 748.989C743.444 728.326 744.683 707.547 744.428 686.866C748.724 684.645 752.538 682.272 755.131 678.042C758.506 672.539 758.204 666.76 756.788 660.738C765.527 656.888 774.042 651.84 782.552 647.453Q809.832 633.461 836.932 619.126Z"/>
	<path fill="#2CA280" d="M525.178 665.386C542.084 673.153 559.68 679.369 576.347 687.672C576.685 707.744 576.238 727.825 576.515 747.896L566.622 752.159C552.39 747.087 508.522 729.216 498.627 719.978C499.37 704.798 498.143 689.529 499.006 674.347C500.342 675.399 501.657 676.444 503.088 677.363C509.372 677.658 515.013 677.201 519.919 672.744C522.284 670.596 523.648 668.123 525.178 665.386ZM538.916 716.167C541.536 715.386 543.597 714.673 545.028 712.194Q545.236 711.84 545.405 711.466Q545.574 711.092 545.702 710.702Q545.829 710.312 545.915 709.911Q546 709.509 546.041 709.101Q546.083 708.693 546.081 708.282Q546.078 707.872 546.032 707.464Q545.985 707.056 545.895 706.656Q545.805 706.255 545.673 705.867C544.974 703.808 543.217 701.673 541.189 700.812C540.358 700.459 539.43 700.249 538.547 700.058C535.933 700.766 533.834 702.1 532.502 704.531Q532.296 704.901 532.131 705.292Q531.965 705.682 531.843 706.088Q531.72 706.493 531.641 706.91Q531.562 707.326 531.528 707.749Q531.495 708.171 531.506 708.595Q531.517 709.019 531.574 709.439Q531.63 709.859 531.731 710.271Q531.832 710.682 531.976 711.081Q532.106 711.439 532.273 711.783Q532.439 712.126 532.64 712.45Q532.841 712.774 533.073 713.077Q533.306 713.379 533.569 713.655Q533.831 713.932 534.121 714.18Q534.41 714.429 534.724 714.646Q535.037 714.864 535.371 715.048Q535.705 715.232 536.056 715.381Q537.432 715.971 538.916 716.167Z"/>
	<defs>
		<linearGradient id="gradient_4" gradientUnits="userSpaceOnUse" x1="622.35675" y1="851.30927" x2="589.54785" y2="780.80444">
			<stop offset="0" stop-color="#198B72"/>
			<stop offset="1" stop-color="#29A680"/>
		</linearGradient>
	</defs>
	<path fill="url(#gradient_4)" d="M594.528 776.85C601.765 779.272 608.734 782.98 615.7 786.123C626.988 791.216 638.418 796.122 649.553 801.537C650.254 813.347 649.969 825.586 649.743 837.428L644.361 840.558C638.149 837.484 616.038 823.191 610.74 823.076C609.618 823.667 609.59 823.395 609.163 824.691C611.372 828.233 624.796 834.498 628.816 836.697C632.484 838.565 636.017 840.567 639.534 842.703C620.869 854.676 600.537 861.816 580.515 870.914L580.554 784.197C586.092 782.757 590.142 780.449 594.528 776.85ZM609.33 822.684C611.732 820.628 613.53 819.016 613.889 815.735C614.073 814.05 613.8 812.422 612.721 811.074C611.37 809.386 609.403 808.647 607.299 808.493C606.579 808.441 606.667 808.451 606.057 808.459C603.9 810.024 602.09 811.178 601.569 813.96C601.226 815.796 601.629 817.656 602.782 819.139C604.383 821.197 606.814 822.26 609.33 822.684Z"/>
	<path fill="#2CA280" d="M387.624 783.474C390.898 782.301 419.476 782.694 425.637 782.249C426.325 809.453 425.913 836.745 425.805 863.958Q409.907 857.276 394.596 849.339Q379.286 841.402 364.662 832.262C372.858 826.805 380.816 820.958 389.042 815.564C392.108 816.047 395.488 816.374 398.106 814.337C399.947 812.904 401.047 810.543 402 808.476C401.793 806.829 401.545 805.175 401.406 803.521C399.205 800.281 398.022 798.962 394.016 798.193C391.85 797.778 389.62 797.701 387.779 799.105C385.634 800.742 384.626 803.78 384.394 806.368C384.268 807.771 384.922 813.396 384.204 814.044C377.233 820.326 368.311 824.335 361.123 830.348C350.116 823.536 338.459 816.727 328.648 808.234C335.25 807.224 349.435 799.865 356.591 796.897C365.627 793.15 374.974 789.881 383.854 785.796C385.253 785.153 386.495 784.535 387.624 783.474Z"/>
	<defs>
		<linearGradient id="gradient_5" gradientUnits="userSpaceOnUse" x1="456.77747" y1="883.38562" x2="463.39951" y2="788.73169">
			<stop offset="0" stop-color="#1E967A"/>
			<stop offset="1" stop-color="#3AAF8C"/>
		</linearGradient>
	</defs>
	<path fill="url(#gradient_5)" d="M430.229 784.367C435.312 788.161 441.164 791.217 446.67 794.355C456.445 799.927 466.371 805.317 475.951 811.216C476.015 814.907 476.104 818.378 477.596 821.84C480.08 827.599 485.059 829.996 490.518 832.245C490.923 850.678 490.642 869.125 490.994 887.559C485.216 886.303 462.827 879.862 459.022 876.723C457.881 875.782 458.149 874.238 458.062 872.892C458.035 867.391 458.994 829.037 456.766 826.336C456.263 825.726 456.336 825.915 455.482 825.869C455.372 825.973 455.248 826.063 455.152 826.18C452.857 828.992 453.334 868.551 453.896 875.148C445.834 872.233 437.954 868.765 430.047 865.455L430.082 812.496C430.069 803.217 429.548 793.612 430.229 784.367Z"/>
	<path fill="#2CA280" d="M508.782 822.342C517.768 825.944 532.938 833.283 541.212 838.396C541.797 843.733 541.478 849.422 541.485 854.795L541.501 884.853C536.218 886.908 530.786 888.558 525.366 890.206C511.688 894.861 508.849 892.704 495.477 889.143C495.595 870.237 495.692 851.168 495.225 832.275C502.015 830.616 505.177 828.172 508.782 822.342Z"/>
	<path fill="#2CA280" d="M635.03 728.845C637.176 729.106 641.058 733.209 643.35 734.548C645.265 735.667 647.402 736.327 649.498 737.017C650.034 756.614 649.734 776.358 649.756 795.97C639.802 792.83 630.45 788.086 621.092 783.533C613.08 779.726 605.008 776.01 597.125 771.944C597.363 764.177 596.97 760.044 591.519 754.232C605.969 747.219 621.146 737.185 635.03 728.845Z"/>
	<path fill="#2CA280" d="M734.844 763.975C737.863 765.757 740.408 766.798 743.91 767.221C721.062 791.145 688.383 815.403 659.723 831.897C657.898 832.957 655.983 833.901 654.12 834.895C654.864 823.828 654.428 812.524 654.454 801.429C664.286 796.469 674.578 792.179 684.587 787.563L734.844 763.975Z"/>
	<path fill="#2CA280" d="M582.227 689.772C599.753 697.172 616.921 705.323 634.225 713.214C634.009 716.447 633.979 719.493 634.254 722.723Q625.561 727.895 616.76 732.882C609.187 737.306 593.717 747.329 586.267 750.113C584.748 749.885 584.192 749.526 583.023 748.616C581.105 744.712 582.547 698.708 582.227 689.772Z"/>
	<path fill="#2CA280" d="M498.683 726.977C513.099 735.643 529.22 741.914 544.628 748.62C550.942 751.368 557.482 753.988 563.492 757.369C562.334 759.639 561.236 761.997 559.987 764.216C535.732 767.587 510.308 770.017 485.824 769.942C497.381 755.415 498.69 745.001 498.683 726.977Z"/>
	<path fill="#87CCB8" d="M227.602 679.526C228.166 679.437 228.231 679.368 228.927 679.765C230.345 680.575 233.805 685.122 235.395 686.58C237.179 688.215 239.383 689.323 241.493 690.477C242.268 702.373 241.68 714.51 242.015 726.451C239.96 724.223 238.183 721.671 236.345 719.259C228.162 708.344 220.472 696.786 213.389 685.125C217.874 682.915 222.851 681.07 227.602 679.526Z"/>
</svg>
