<?xml version="1.0" encoding="utf-8" ?>
<svg xmlns="http://www.w3.org/2000/svg" xmlns:xlink="http://www.w3.org/1999/xlink" width="437" height="437">
	<path fill="#D5ECEB" d="M0 0L437 0L437 437L0 437L0 0Z"/>
	<defs>
		<linearGradient id="gradient_0" gradientUnits="userSpaceOnUse" x1="257.56525" y1="397.25864" x2="148.96437" y2="49.134716">
			<stop offset="0" stop-color="#262430"/>
			<stop offset="1" stop-color="#2A374B"/>
		</linearGradient>
	</defs>
	<path fill="url(#gradient_0)" d="M215.18 29.1015C217.941 28.6998 221.267 28.9589 223.995 29.4075Q225.898 29.7149 227.731 30.3095Q229.565 30.9041 231.286 31.7719C237.798 35.0226 244.457 39.0466 250.843 42.6131L296.142 68.1362Q332.104 87.8991 367.777 108.181C374.884 112.224 382.261 115.898 389.25 120.128C390.893 121.123 392.645 122.285 393.731 123.91C394.659 125.301 394.695 127.039 394.315 128.631C393.961 130.108 393.111 131.323 391.967 132.301C389.186 134.68 385.391 136.329 382.195 138.112C375.58 141.803 368.884 145.386 362.386 149.28C363.002 156.308 362.754 163.554 362.859 170.615C363.991 171.317 365.069 172.061 365.92 173.101C368.964 176.822 368.066 183.047 367.701 187.545C366.813 188.921 365.754 189.736 364.445 190.677C365.548 194.481 365.891 198.64 366.431 202.556Q367.968 213.902 369.318 225.271Q370.411 225.832 371.496 226.406C383.935 232.954 396.138 239.977 408.45 246.763C414.304 249.989 422.651 253.776 427.765 257.697C429.638 259.132 431.295 261.079 431.979 263.371C433.73 269.232 432.937 276.464 432.84 282.523C432.8 284.971 432.987 287.538 432.652 289.964C432.378 291.945 431.802 293.94 430.816 295.688C429.393 298.211 426.755 300.018 424.344 301.496C417.33 305.796 409.931 309.64 402.71 313.583L379.672 326.331L310.626 364.102L265.45 389.136Q257.656 393.449 249.816 397.68C244.277 400.679 238.639 404.037 232.53 405.725C222.989 408.362 211.177 408.523 201.775 405.391C197.158 403.853 192.882 401.545 188.651 399.178L79.654 339.26L33.5077 313.967C26.2285 309.947 18.5613 306.223 11.5496 301.775C8.99697 300.156 6.24176 298.292 4.78515 295.575Q4.1577 294.395 3.74031 293.126Q3.32292 291.856 3.12778 290.534C2.41877 285.825 2.57761 268.504 3.89317 264.184C4.76961 261.307 6.54393 258.97 8.98921 257.211C12.7094 254.536 17.3398 252.521 21.3837 250.363L41.343 239.5L110.888 201.427C112.156 193.516 114.238 181.07 117.83 174.096C110.443 169.557 102.651 165.55 95.0676 161.341C85.8626 156.232 76.7481 150.916 67.506 145.885Q60.21 141.981 52.97 137.975C49.959 136.318 46.8099 134.747 44.0326 132.713C42.3782 131.501 41.3395 130.074 41.0717 128.004C40.8352 126.174 41.5516 124.213 42.7317 122.821C43.7249 121.649 45.2132 120.718 46.5238 119.941C52.6448 116.311 59.1207 113.125 65.328 109.614L132.34 72.0776L176.386 47.4821Q185.872 42.0734 195.486 36.896C198.844 35.0468 202.151 33.0302 205.601 31.3619C208.662 29.8819 211.838 29.4358 215.18 29.1015Z"/>
	<defs>
		<linearGradient id="gradient_1" gradientUnits="userSpaceOnUse" x1="251.54689" y1="156.22301" x2="272.60629" y2="41.144997">
			<stop offset="0" stop-color="#2E4F61"/>
			<stop offset="1" stop-color="#36868D"/>
		</linearGradient>
	</defs>
	<path fill="url(#gradient_1)" d="M219.066 31.7368C222.267 31.5509 225.7 31.9787 228.616 33.3754C231.74 34.8719 234.723 36.7772 237.755 38.457L264.056 53.246L356.403 105.001C365.409 110.093 374.491 115.035 383.468 120.194C385.78 121.523 388.62 122.518 390.622 124.292C391.371 124.957 391.948 125.814 391.966 126.845C391.988 128.129 391.256 128.953 390.376 129.784C386.734 133.223 373.976 139.567 368.998 142.329C361.001 146.766 353.147 151.467 345.133 155.863C336.801 160.433 328.302 164.765 320.104 169.575C318.61 167.957 317.097 165.953 315.327 164.638C312.448 162.498 308.761 161.023 305.6 159.306C303.188 157.996 300.871 156.512 298.464 155.187C294.097 152.784 289.671 150.555 285.259 148.246C279.472 145.217 273.851 141.865 268.082 138.804C263.3 136.267 258.654 133.62 253.921 131.006C249.245 128.424 244.558 125.919 240.146 122.889C240.359 119.658 240.169 116.526 237.931 113.949C233.748 109.132 224.774 107.58 218.767 107.329C217.006 107.255 214.754 107.862 213.093 107.518C209.745 106.824 201.087 102.289 197.454 100.651C184.245 94.6939 171.2 89.3297 156.83 86.8695Q147.673 85.334 138.407 84.7293C136.306 84.597 130.341 84.9499 128.785 83.906C132.756 81.3834 136.94 79.0984 141.01 76.7346Q152.23 70.1847 163.539 63.7898C175.315 57.1264 186.987 50.2265 198.678 43.4123C203.444 40.6347 208.166 37.7594 212.953 35.0245C214.939 33.8899 217.201 33.0209 219.066 31.7368Z"/>
	<path fill="#3C7F8B" d="M327.187 235.86C331.074 237.693 335.063 239.451 338.756 241.654C339.058 242.39 338.914 242.944 338.78 243.71C338.668 244.771 338.674 246.087 338.333 247.083C338.209 248.524 338.323 249.205 339.295 250.303C342.092 253.465 346.019 251.895 348.761 253.561C351.086 255.049 354.102 255.232 356.786 255.289C357.448 255.303 358.426 255.129 359.048 255.245C359.253 255.283 359.773 255.728 359.978 255.866C360.921 255.361 361.782 255.137 362.815 254.919C366.564 257.09 370.558 258.975 374.387 261.014C377.195 262.51 379.927 264.255 382.804 265.599C379.074 268.086 375.031 270.15 371.081 272.263L351.758 282.465L292.775 314.305C286.651 317.623 280.723 321.34 274.587 324.605C267.813 328.209 260.789 331.377 254.102 335.133C246.996 339.127 239.921 343.079 232.731 346.925C229.008 348.916 225.152 351.323 221.145 352.655C218.167 353.645 215.233 352.933 212.415 351.797C204.717 348.694 197.459 344.286 190.212 340.26C182.463 335.956 174.595 331.792 166.779 327.605L90.2597 286.448C81.9083 281.99 73.7338 277.168 65.3562 272.74C61.238 270.563 56.9556 268.64 52.7895 266.546C59.0198 262.749 65.582 259.499 72.0424 256.119C76.568 253.752 81.0234 251.225 85.5357 248.826C93.5577 244.56 101.212 239.87 109.48 236.065Q109.619 244.64 110.197 253.197L110.298 253.491C111.238 260.64 114.912 268.83 119.134 274.614C120.673 276.721 122.498 278.623 124.272 280.53C125.925 282.306 127.569 284.144 129.496 285.628C131.581 287.235 133.98 288.596 135.905 290.386C136.7 290.799 137.533 291.186 138.292 291.662C139.269 292.282 140.296 292.872 141.21 293.583C142.362 294.256 143.585 294.897 144.671 295.668L147.747 297.157C150.793 298.179 154.143 299.679 156.981 301.188L159.495 302.036C163.186 303.307 166.849 304.924 170.603 305.971C176.953 307.742 184.884 308.602 191.469 309.437C194.24 309.788 208.575 310.26 209.698 310.711C211.824 310.693 213.959 310.51 216.091 310.48C220.251 310.035 224.626 310.098 228.813 310.05L231.262 309.911C233.563 309.193 243.154 308.664 246.23 308.246C252.363 307.412 258.405 305.994 264.509 304.984L265.284 304.739C271.774 301.971 278.467 299.74 284.894 296.81C290.278 294.355 295.317 291.315 300.492 288.463Q303.325 286.404 306.089 284.254C306.985 282.709 308.306 281.523 309.65 280.377L310.064 279.939C313.036 276.775 315.757 273.358 318.825 270.288L319.955 268.72L321.032 266.849C321.741 265.714 322.364 264.501 323.022 263.334C324.64 259.874 325.409 256.792 325.794 252.996C325.957 251.383 325.984 249.609 326.475 248.065C326.508 247.329 326.461 246.574 326.449 245.837C326.28 242.622 326.93 239.089 327.187 235.86Z"/>
	<path fill="#53959E" d="M327.187 235.86C331.074 237.693 335.063 239.451 338.756 241.654C334.886 243.512 330.673 245.062 326.449 245.837C326.28 242.622 326.93 239.089 327.187 235.86Z"/>
	<path fill="#85BAC1" d="M310.064 279.939C311.714 280.188 313.102 281.078 314.513 281.913C312.324 283.287 303.482 289.616 301.351 289.05C300.912 288.934 300.762 288.809 300.492 288.463Q303.325 286.404 306.089 284.254C306.985 282.709 308.306 281.523 309.65 280.377L310.064 279.939Z"/>
	<path fill="#3C7F8B" d="M309.65 280.377C310.019 280.713 310.305 280.927 310.481 281.409C309.794 283.024 307.83 283.57 306.296 284.176C306.228 284.203 306.158 284.228 306.089 284.254C306.985 282.709 308.306 281.523 309.65 280.377Z"/>
	<path fill="#AFE1EB" d="M348.761 253.561C346.588 254.544 344.642 255.944 342.47 256.941L341.856 256.643C341.547 255.808 341.858 255.004 341.994 254.132C340.996 253.102 337.615 253.225 335.985 251.072C335.994 250.256 336.146 250.625 336.524 250.051C337.237 248.966 336.743 247.049 337.691 245.901C338.161 246.269 338.159 246.524 338.333 247.083C338.209 248.524 338.323 249.205 339.295 250.303C342.092 253.465 346.019 251.895 348.761 253.561Z"/>
	<path fill="#3C7F8B" d="M323.022 263.334C323.802 263.87 324.525 264.457 325.459 264.678C325.157 264.963 325.084 265.033 324.935 265.439L328.508 267.119C328.645 267.481 328.828 267.863 328.917 268.237C327.355 269.491 325.72 270.38 323.641 270.18C322.312 270.053 321.079 269.408 319.955 268.72L321.032 266.849C321.741 265.714 322.364 264.501 323.022 263.334Z"/>
	<path fill="#53959E" d="M323.022 263.334C323.802 263.87 324.525 264.457 325.459 264.678C325.157 264.963 325.084 265.033 324.935 265.439C323.986 266.341 323.382 266.916 322.006 266.903C321.68 266.899 321.356 266.873 321.032 266.849C321.741 265.714 322.364 264.501 323.022 263.334Z"/>
	<path fill="#AFE1EB" d="M325.459 264.678C328.314 264.003 332.614 263.216 335.388 264.526L335.661 264.984C335.378 265.656 334.995 265.965 334.31 266.257C334.034 266.374 333.749 266.473 333.466 266.572L332.295 267.299C331.695 267.985 330.942 269.391 330.145 269.75L329.189 269.52L328.917 268.237C328.828 267.863 328.645 267.481 328.508 267.119L324.935 265.439C325.084 265.033 325.157 264.963 325.459 264.678Z"/>
	<path fill="#85BAC1" d="M329.505 266.26C330.25 267.051 331.35 266.763 332.295 267.299C331.695 267.985 330.942 269.391 330.145 269.75L329.189 269.52L328.917 268.237C328.828 267.863 328.645 267.481 328.508 267.119C328.866 266.899 329.19 266.543 329.505 266.26Z"/>
	<path fill="#53959E" d="M329.505 266.26C330.122 265.766 330.763 265.574 331.577 265.656C332.362 265.735 332.879 266.083 333.466 266.572L332.295 267.299C331.35 266.763 330.25 267.051 329.505 266.26Z"/>
	<path fill="#85BAC1" d="M156.981 301.188L159.495 302.036C155.745 304.217 152.109 306.572 148.379 308.783L145.92 307.55C148.519 305.378 152.243 303.039 155.451 301.893C156.013 301.692 156.466 301.491 156.981 301.188Z"/>
	<path fill="#AFE1EB" d="M338.756 241.654C339.058 242.39 338.914 242.944 338.78 243.71C337.146 244.545 329.83 247.716 328.162 248.117C327.598 248.253 327.033 248.182 326.475 248.065C326.508 247.329 326.461 246.574 326.449 245.837C330.673 245.062 334.886 243.512 338.756 241.654Z"/>
	<path fill="#AFE1EB" d="M102.053 259.819C101.809 259.736 101.564 259.652 101.326 259.555C100.683 259.293 100.015 259.01 99.7407 258.366C101.865 256.67 107.623 253.698 110.197 253.197L110.298 253.491Q110.24 254.175 110.175 254.859C108.318 257.13 104.672 258.631 102.053 259.819Z"/>
	<path fill="#AFE1EB" d="M144.671 295.668L147.747 297.157C145.9 298.896 140.549 301.956 138.125 302.818C137.324 302.693 137.144 302.439 136.538 301.923C136.685 300.828 142.564 298.791 143.781 296.727C143.82 296.661 143.856 296.593 143.894 296.526C144.086 296.214 144.416 295.935 144.671 295.668Z"/>
	<path fill="#85BAC1" d="M319.955 268.72C321.079 269.408 322.312 270.053 323.641 270.18C325.72 270.38 327.355 269.491 328.917 268.237L329.189 269.52C327.291 269.974 325.281 272.481 323.526 273.566C321.936 272.504 320.409 271.355 318.825 270.288L319.955 268.72Z"/>
	<path fill="#AFE1EB" d="M359.978 255.866C360.921 255.361 361.782 255.137 362.815 254.919C362.481 256.576 361.049 257.814 359.698 258.716C358.418 259.571 356.054 260.792 354.499 260.473C354.146 260.401 354.12 260.371 353.834 260.233L353.735 259.835C355.002 258.13 358.241 257.221 359.978 255.866Z"/>
	<path fill="#85BAC1" d="M265.284 304.739C265.973 304.742 266.447 304.585 266.971 305.057C266.59 306.202 260.366 309.886 258.985 310.525C258.371 310.809 257.849 310.872 257.197 310.678C256.853 310.243 256.934 310.157 256.962 309.593C257.658 308.005 262.982 306.962 264.509 304.984L265.284 304.739Z"/>
	<path fill="#AFE1EB" d="M131.553 295.44C130.392 296.22 129.248 297.154 127.803 297.257C127.057 297.31 126.342 297.251 125.757 296.752C125.678 296.274 125.637 296.105 125.866 295.649C126.737 293.914 129.785 293.153 131.504 292.528C131.703 292.923 131.877 293.031 131.764 293.474C131.583 294.183 131.452 294.713 131.553 295.44Z"/>
	<path fill="#AFE1EB" d="M135.905 290.386C136.7 290.799 137.533 291.186 138.292 291.662C136.378 293.117 133.822 294.606 131.553 295.44C131.452 294.713 131.583 294.183 131.764 293.474C131.877 293.031 131.703 292.923 131.504 292.528C132.956 291.787 134.437 291.097 135.905 290.386Z"/>
	<path fill="#AFE1EB" d="M209.698 310.711C211.824 310.693 213.959 310.51 216.091 310.48C215.029 311.739 213.183 312.633 211.752 313.448C210.929 312.565 210.247 311.798 209.698 310.711Z"/>
	<path fill="#53959E" d="M143.894 296.526C142.979 296.055 142.205 296.13 141.212 296.073C140.493 296.032 140.015 295.948 139.538 295.404C139.574 295.141 139.564 295.092 139.699 294.818C140.008 294.191 140.581 293.813 141.21 293.583C142.362 294.256 143.585 294.897 144.671 295.668C144.416 295.935 144.086 296.214 143.894 296.526Z"/>
	<path fill="#85BAC1" d="M228.813 310.05L231.262 309.911C231.246 310.406 231.156 310.779 231.002 311.248C230.099 312.27 228.796 312.734 227.581 313.302C227.954 312.206 228.396 311.13 228.813 310.05Z"/>
	<path fill="#AFE1EB" d="M122.866 284.063L125.701 284.003L125.912 284.152C127.03 284.949 128.349 285.888 128.525 287.358C128.642 288.335 128.266 289.144 127.63 289.87C125.577 292.217 121.958 293.249 118.963 293.379C118.022 293.419 117.055 293.338 116.181 292.957C115.127 292.499 113.771 291.424 113.436 290.275C113.291 289.777 113.363 289.252 113.609 288.8C115.051 286.142 120.179 284.764 122.866 284.063Z"/>
	<path fill="#53959E" d="M122.73 286.287C123.552 286.208 124.465 286.163 125.27 286.38C125.909 286.552 126.13 286.788 126.463 287.332C126.446 287.809 126.398 288.107 126.125 288.51C124.675 290.655 122.159 291.433 119.753 291.831C118.761 291.857 117.408 291.79 116.488 291.388C115.954 291.155 115.905 291.032 115.683 290.532C115.754 290.28 115.815 290.057 115.963 289.837C117.18 288.029 120.714 286.818 122.73 286.287Z"/>
	<path fill="#AFE1EB" d="M188.036 318.802C189.783 318.601 192.16 318.681 193.747 319.497C194.414 319.84 194.918 320.316 195.105 321.066C195.301 321.85 194.912 322.723 194.464 323.344C192.703 325.785 189.33 326.902 186.506 327.437C184.631 327.561 182.852 327.541 181.077 326.837C180.37 326.556 179.721 326.126 179.46 325.379C179.243 324.761 179.451 324.026 179.765 323.482C181.223 320.96 185.358 319.445 188.036 318.802Z"/>
	<path fill="#3C7F8B" d="M188.188 320.507C189.21 320.409 190.541 320.318 191.54 320.593C192.162 320.764 192.329 320.988 192.605 321.54C192.556 321.793 192.515 322.03 192.396 322.262C191.433 324.14 188.16 325.174 186.279 325.75C185.271 325.856 184.319 325.906 183.309 325.787C182.406 325.68 181.829 325.592 181.277 324.873C181.311 324.643 181.298 324.627 181.42 324.385C182.338 322.562 186.389 321.124 188.188 320.507Z"/>
	<path fill="#85BAC1" d="M319.632 285.851C321.034 285.814 322.488 285.914 323.795 286.472C324.374 286.719 324.861 287.081 325.063 287.697C325.303 288.428 325.036 289.147 324.654 289.777C322.902 292.669 318.501 294.375 315.354 295.055C314.139 295.059 313.009 294.846 311.82 294.624C310.755 293.742 309.929 292.835 309.078 291.747C311.811 288.351 315.306 286.381 319.632 285.851Z"/>
	<path fill="#3C7F8B" d="M319.831 287.561C319.911 287.56 319.991 287.556 320.071 287.557C321.826 287.565 322.471 288.29 323.652 289.443C321.043 290.842 318.456 292.418 315.677 293.452C314.85 293.53 313.967 293.509 313.155 293.315C312.547 293.17 312.317 292.975 311.986 292.467C311.999 292.123 312.029 291.846 312.217 291.546C313.722 289.147 317.211 288.018 319.831 287.561Z"/>
	<path fill="#AFE1EB" d="M222.057 335.343C223.19 335.323 225.501 335.831 226.366 336.639C226.817 337.06 227.015 337.471 227.063 338.086C227.139 339.072 226.383 340.168 225.758 340.855C223.533 343.299 220.247 344.271 217.048 344.365C215.885 344.188 214.527 343.893 213.457 343.393C212.819 343.095 212.105 342.535 211.935 341.814C211.752 341.038 212.203 340.272 212.677 339.7C214.817 337.115 218.806 335.625 222.057 335.343Z"/>
	<path fill="#3C7F8B" d="M220.964 337.303C221.579 337.221 222.099 337.196 222.718 337.275C223.474 337.37 224.403 337.464 224.906 338.095C225.015 338.614 224.977 338.918 224.69 339.384C223.576 341.193 220.52 342.063 218.568 342.465C217.752 342.538 216.887 342.599 216.07 342.527C215.377 342.467 214.969 342.257 214.511 341.729C214.479 341.198 214.462 341.033 214.766 340.565C216.047 338.593 218.79 337.762 220.964 337.303Z"/>
	<path fill="#85BAC1" d="M274.509 309.324C275.969 309.164 277.79 309.135 279.185 309.643C279.921 309.912 280.487 310.317 280.8 311.051C281.116 311.793 280.814 312.729 280.436 313.385C278.982 315.915 275.861 317.223 273.185 317.935C271.454 318.109 269.606 317.899 267.989 317.224C267.376 316.968 266.782 316.505 266.549 315.865C266.313 315.218 266.459 314.517 266.785 313.929C268.168 311.434 271.911 310.035 274.509 309.324Z"/>
	<path fill="#3C7F8B" d="M275.542 311.072C276.74 311.19 277.647 311.16 278.491 312.086C278.554 312.69 278.531 312.97 278.129 313.458C276.858 315 273.907 316.296 271.957 316.572C270.828 316.414 269.682 316.427 268.842 315.583C268.743 315.089 268.639 314.902 268.904 314.442C269.967 312.595 273.596 311.507 275.542 311.072Z"/>
	<path fill="#AFE1EB" d="M109.948 277.841C111.534 277.811 113.485 277.971 114.853 278.859C115.306 279.154 115.649 279.581 115.74 280.127C115.878 280.964 115.467 281.819 114.969 282.464C113.086 284.904 109.311 285.822 106.398 286.126C105.066 286.048 103.881 285.67 102.656 285.167C101.671 284.763 100.984 284.453 100.561 283.431C100.526 282.688 100.624 282.261 101.109 281.677C103.014 279.379 107.08 278.142 109.948 277.841Z"/>
	<path fill="#3C7F8B" d="M109.757 279.787C110.581 279.704 111.613 279.703 112.388 280.015C112.888 280.216 112.91 280.308 113.102 280.773C113.033 281.035 112.974 281.276 112.825 281.507C111.64 283.344 108.47 284.374 106.45 284.771C105.29 284.774 104.085 284.753 103.22 283.929L103.33 283.33C104.828 281.548 107.542 280.359 109.757 279.787Z"/>
	<path fill="#3C7F8B" d="M174.367 313.327C176.816 312.347 179.244 312.152 181.732 313.169C182.299 313.401 182.667 313.683 183.109 314.1C183.293 314.644 183.389 314.969 183.059 315.492C182.774 315.943 182.218 316.361 181.776 316.642C180.71 317.617 179.262 318.614 177.973 319.285C175.676 320.48 172.864 321.008 170.36 320.158C169.567 319.889 168.708 319.43 168.369 318.621C168.174 318.154 168.196 317.617 168.419 317.157C169.363 315.214 172.496 314.069 174.367 313.327Z"/>
	<path fill="#AFE1EB" d="M181.776 316.642C180.71 317.617 179.262 318.614 177.973 319.285C175.676 320.48 172.864 321.008 170.36 320.158C169.567 319.889 168.708 319.43 168.369 318.621C168.174 318.154 168.196 317.617 168.419 317.157C169.363 315.214 172.496 314.069 174.367 313.327C174.426 313.846 174.755 314.399 174.789 314.743C173.428 315.436 171.364 316.222 170.624 317.637C170.697 318.078 170.61 318.144 170.99 318.433C171.585 318.885 172.547 319.126 173.287 319.002C175.832 318.577 178.172 316.621 180.492 315.563L180.942 315.464C181.356 314.806 181.46 314.429 182.186 314.118L182.562 314.292C182.625 314.942 182.681 315.061 182.374 315.624L181.923 315.866L181.776 316.642Z"/>
	<path fill="#85BAC1" d="M174.367 313.327C176.816 312.347 179.244 312.152 181.732 313.169C182.299 313.401 182.667 313.683 183.109 314.1C183.293 314.644 183.389 314.969 183.059 315.492C182.774 315.943 182.218 316.361 181.776 316.642L181.923 315.866L182.374 315.624C182.681 315.061 182.625 314.942 182.562 314.292L182.186 314.118C181.46 314.429 181.356 314.806 180.942 315.464L180.492 315.563C180.62 315.023 180.63 314.94 180.461 314.415C180.248 314.245 180.052 314.08 179.796 313.979C178.301 313.386 176.197 314.212 174.789 314.743C174.755 314.399 174.426 313.846 174.367 313.327Z"/>
	<path fill="#AFE1EB" d="M201.949 325.328C204.032 325.232 206.208 326.039 208.13 326.743C205.197 330.296 200.577 332.444 196.153 333.46C195.308 333.574 194.396 333.644 193.558 333.45C192.471 333.197 191.603 332.609 191.004 331.676C190.92 330.998 190.893 330.674 191.326 330.107C192.73 328.269 199.616 325.657 201.949 325.328Z"/>
	<path fill="#3C7F8B" d="M201.37 326.736C201.908 326.694 202.553 326.639 203.046 326.892C203.538 327.145 203.534 327.22 203.692 327.716C203.545 328.193 203.418 328.609 203.082 328.99C201.428 330.862 198.676 331.874 196.247 332.09C195.618 332.107 194.808 332.219 194.224 331.947C193.847 331.771 193.917 331.691 193.791 331.327C194.812 329.526 199.469 327.649 201.37 326.736Z"/>
	<path fill="#AFE1EB" d="M95.8085 270.292C97.3821 270.213 99.1529 270.114 100.632 270.736C101.253 270.997 101.83 271.409 102.052 272.074C102.275 272.744 102.083 273.467 101.76 274.069C100.43 276.553 97.2366 277.617 94.7317 278.4C93.4401 278.554 92.1628 278.484 90.8667 278.436C89.9548 277.912 88.8797 277.22 88.5332 276.177C88.3641 275.668 88.5007 275.069 88.7462 274.611C89.8769 272.499 93.6294 270.971 95.8085 270.292Z"/>
	<path fill="#53959E" d="M97.9066 271.824C98.643 271.766 99.677 271.855 100.275 272.306C100.373 272.829 100.428 272.93 100.109 273.397C98.8273 275.269 95.6419 276.615 93.4815 276.963C92.4358 276.913 91.3555 277.003 90.5845 276.197C90.5531 275.641 90.5189 275.505 90.8823 275.041C92.3977 273.108 95.5798 272.149 97.9066 271.824Z"/>
	<path fill="#AFE1EB" d="M249.514 322.591C251.143 322.472 255.453 322.446 256.886 323.272C257.217 323.463 257.167 323.583 257.266 323.922C256.537 325.414 248.268 329.99 246.334 331.144C245.464 331.551 244.781 331.873 243.839 331.598C243.373 331.045 243.356 331.012 243.302 330.293C243.613 329.737 249.85 326.133 251.324 324.992C249.724 324.754 247.663 324.526 246.364 323.488C247.131 322.573 248.373 322.712 249.514 322.591Z"/>
	<path fill="#AFE1EB" d="M337.795 269.301C340.137 269.202 343.238 268.8 345.501 269.333C346.126 269.481 346.388 269.59 346.717 270.138C346.694 270.217 346.682 270.301 346.648 270.376C345.946 271.936 335.84 276.688 333.82 277.758C333.608 277.893 333.502 277.973 333.253 278.069C332.703 278.282 332.375 278.228 331.878 277.967L331.712 277.391C332.282 275.957 338.609 272.721 340.241 271.667C338.746 271.239 333.639 271.003 333.291 270.824C334.156 270.013 336.611 269.558 337.795 269.301Z"/>
	<path fill="#AFE1EB" d="M241.103 318.766C239.748 318.727 238.306 318.812 237.033 318.291L236.86 317.955C238.505 316.914 242.652 316.889 244.538 317.286C245.09 317.402 245.243 317.462 245.613 317.87C245.441 318.392 245.334 318.512 244.891 318.855C243.42 319.995 241.553 320.882 239.97 321.899C238.112 323.094 236.235 324.648 234.285 325.65C233.272 326.17 232.641 326.379 231.528 326.073L231.134 325.638C231.685 324.136 233.784 323.802 234.829 322.582L235.043 321.388C237.355 321.356 239.227 319.98 241.103 318.766Z"/>
	<defs>
		<linearGradient id="gradient_2" gradientUnits="userSpaceOnUse" x1="94.253372" y1="246.92661" x2="96.726799" y2="251.4838">
			<stop offset="0" stop-color="#A8E9EA"/>
			<stop offset="1" stop-color="#B7E4F5"/>
		</linearGradient>
	</defs>
	<path fill="url(#gradient_2)" d="M95.8404 245.878C98.7445 245.524 100.657 246.007 103.015 247.747C102.647 248.257 102.238 248.7 101.771 249.121C100.326 250.423 92.997 254.634 91.335 254.563C90.9667 254.289 90.5942 254.019 90.2827 253.679C89.8981 253.259 89.8377 253.232 89.865 252.688C90.5454 251.994 92.3112 251.662 93.2858 251.278C95.8354 250.274 97.9651 249.293 100.262 247.76C98.6572 247.533 96.9441 247.428 95.3693 247.067C94.7685 246.93 94.3464 246.926 94.0167 246.392C94.6633 245.876 95.0301 245.949 95.8404 245.878Z"/>
	<path fill="#AFE1EB" d="M211.496 332.347C210.495 332.161 209.448 332.185 208.452 331.978C207.742 331.832 207.558 331.678 207.179 331.077L207.469 330.676C209.698 329.906 213.238 330.267 215.533 330.683C215.532 331.415 215.527 331.697 215.003 332.239C213.253 334.049 205.486 337.598 202.965 337.561C202.689 337.557 202.558 337.534 202.266 337.502L202.125 337.223C203.963 335.254 208.962 334.262 211.496 332.347Z"/>
	<path fill="#AFE1EB" d="M211.496 332.347C210.495 332.161 209.448 332.185 208.452 331.978C207.742 331.832 207.558 331.678 207.179 331.077L207.469 330.676C209.698 329.906 213.238 330.267 215.533 330.683C213.761 330.585 213.015 332.063 211.496 332.347Z"/>
	<path fill="#AFE1EB" d="M72.1986 257.29C75.1179 257.233 78.8958 258.821 81.6331 259.805C79.4377 261.549 76.815 262.778 74.2123 263.799C73.3318 264.144 72.2271 264.433 71.4219 264.898C71.1494 265.055 71.0182 265.257 70.8358 265.503C71.568 265.661 72.0503 265.767 72.6296 266.256L72.6168 266.552C72.3851 266.664 72.1564 266.786 71.8991 266.83C71.1999 266.951 70.6861 266.799 70.1101 266.422C70.0053 266.138 69.9054 266.031 70 265.716C70.662 263.515 75.7147 260.707 77.556 259.43C75.7388 259.186 73.5689 258.556 72.1986 257.29Z"/>
	<path fill="#AFE1EB" d="M87.6384 265.362C88.8786 265.385 90.6846 265.23 91.8236 265.768C92.2951 265.991 92.3117 266.066 92.4686 266.529C91.4204 268.599 83.9693 271.765 81.8128 272.522L81.2004 272.329C81.6569 270.936 87.616 267.988 89.1275 267.064C88.0766 267.06 87.0217 267.073 85.9714 267.052C84.9661 267.032 84.5066 266.837 83.8076 266.099L83.897 265.799C85.0201 265.308 86.4254 265.41 87.6384 265.362Z"/>
	<path fill="#AFE1EB" d="M353.751 272.238C354.033 272.245 354.329 272.24 354.601 272.336C355.173 272.538 355.74 272.924 356.001 273.477C355.948 273.593 355.92 273.724 355.841 273.825C355.57 274.17 353.436 274.883 352.919 275.126C350.499 276.264 348.2 277.668 345.891 279.013C345.217 279.17 344.889 279.086 344.301 278.792C344.127 278.221 344.061 278.104 344.363 277.54C345.196 275.984 351.892 272.878 353.751 272.238Z"/>
	<path fill="#AFE1EB" d="M225.927 314.267C226.335 314.21 226.626 314.18 227.038 314.261C227.452 314.342 227.383 314.399 227.588 314.726C226.946 316.362 222.642 318.809 221.063 319.64C220.564 319.544 219.949 319.478 219.519 319.198C219.051 318.894 219.083 318.751 219.003 318.242C220.005 316.521 224.154 315.177 225.927 314.267Z"/>
	<path fill="#85BAC1" d="M162.766 310.063C164.488 309.013 167.55 306.686 169.629 307.085C169.847 307.127 169.949 307.174 170.172 307.252L170.371 307.722C169.61 309.506 166.432 310.729 164.793 311.657C164.296 310.989 163.449 310.53 162.766 310.063Z"/>
	<path fill="#AFE1EB" d="M162.766 310.063C163.449 310.53 164.296 310.989 164.793 311.657C162.817 313.052 161.124 314.174 158.639 314.358L158.21 313.772C158.947 312.019 161.201 310.979 162.766 310.063Z"/>
	<path fill="#85BAC1" d="M294.121 299.51C292.057 300.82 290.293 302.578 287.737 302.857L287.48 302.536C288.531 300.81 291.523 299.815 293.27 298.928L293.483 299.383L294.121 299.51Z"/>
	<path fill="#AFE1EB" d="M108.544 258.23L109.018 258.41L109.02 258.855C107.999 260.039 106.846 261.464 105.46 262.214C105.314 262.126 105.043 261.972 104.93 261.851C104.724 261.629 104.624 261.381 104.73 261.096C105.19 259.861 107.417 258.881 108.544 258.23Z"/>
	<path fill="#AFE1EB" d="M234.829 322.582C233.431 322.77 230.988 323.762 229.658 323.31C229.636 322.923 229.554 322.894 229.82 322.571C230.779 321.408 233.621 321.491 235.043 321.388L234.829 322.582Z"/>
	<path fill="#869EAB" d="M293.27 298.928C294.459 298.186 296.125 296.856 297.597 297.127C297.966 297.615 297.947 297.703 297.982 298.323C297.384 298.893 295.096 299.064 294.121 299.51L293.483 299.383L293.27 298.928Z"/>
	<path fill="#D5ECEB" d="M348.013 287.567C349.415 289.719 347.039 311.49 348.756 315.577C342.167 319.753 333.985 323.966 326.958 327.426C320.774 330.992 314.43 334.784 308.016 337.903L307.147 338.411C301.03 342.088 294.791 345.499 288.543 348.943C285.594 350.569 282.676 352.417 279.663 353.906L254.462 367.857C246.965 371.952 239.029 377.003 230.7 379.098C222.215 381.232 211.965 381.201 203.616 378.734C197.829 377.024 192.531 373.713 187.262 370.841L163.58 357.729L129.631 338.996C124.193 336.028 118.534 333.403 113.23 330.198C113.468 328.541 113.308 326.599 113.326 324.916Q113.44 318.638 113.337 312.36C113.279 308.971 112.907 305.253 113.402 301.907L113.679 302.032C116.381 303.268 118.962 304.876 121.56 306.318Q126.711 309.156 131.927 311.872L187.09 341.694C195.521 346.202 203.993 351.869 213.164 354.722C216.534 355.771 219.612 355.987 222.957 354.759C229.546 352.341 237.681 347.329 243.963 343.911C254.649 338.098 265.438 332.432 276.222 326.801C277.111 326.265 278.033 325.774 278.938 325.266C279.74 324.313 304.728 311.058 308.433 309.196C313.87 305.874 319.853 303.096 325.469 300.055C328.206 298.174 331.377 296.703 334.291 295.101C338.864 292.588 343.386 289.98 348.013 287.567Z"/>
	<path fill="#2A2E3D" d="M348.013 287.567C349.415 289.719 347.039 311.49 348.756 315.577C342.167 319.753 333.985 323.966 326.958 327.426C320.774 330.992 314.43 334.784 308.016 337.903L307.147 338.411C301.03 342.088 294.791 345.499 288.543 348.943C285.594 350.569 282.676 352.417 279.663 353.906C279.623 353.17 279.413 352.483 279.365 351.757C279.19 349.113 279.318 346.453 279.131 343.805C274.837 346.397 263.478 353.317 258.8 353.153C257.18 353.096 254.907 352.665 253.829 351.372C253.422 350.884 253.288 350.357 253.396 349.726C253.558 348.783 254.436 347.935 255.148 347.373C257.584 345.452 260.624 344.062 263.354 342.604C268.083 340.078 272.979 337.574 277.495 334.691C276.457 333.297 277.179 328.857 276.222 326.801C277.111 326.265 278.033 325.774 278.938 325.266C279.74 324.313 304.728 311.058 308.433 309.196C313.87 305.874 319.853 303.096 325.469 300.055C328.206 298.174 331.377 296.703 334.291 295.101C338.864 292.588 343.386 289.98 348.013 287.567Z"/>
	<path fill="#F4F5F7" d="M348.013 287.567C349.415 289.719 347.039 311.49 348.756 315.577C342.167 319.753 333.985 323.966 326.958 327.426C325.912 326.148 326.5 320.189 326.543 318.324C327.686 317.84 329.107 317.099 329.791 316.021C330.134 315.48 330.248 314.841 330.044 314.227C329.425 312.364 327.157 311.559 325.541 310.826C325.512 307.314 326.147 303.506 325.469 300.055C328.206 298.174 331.377 296.703 334.291 295.101C338.864 292.588 343.386 289.98 348.013 287.567Z"/>
	<path fill="#D5ECEB" d="M325.469 300.055C326.147 303.506 325.512 307.314 325.541 310.826C327.157 311.559 329.425 312.364 330.044 314.227C330.248 314.841 330.134 315.48 329.791 316.021C329.107 317.099 327.686 317.84 326.543 318.324C326.5 320.189 325.912 326.148 326.958 327.426C320.774 330.992 314.43 334.784 308.016 337.903C307.133 334.801 309.122 331.246 307.539 328.103C310.93 326.163 314.548 324.324 317.16 321.36C314.75 319.608 312.251 318.606 309.489 317.567L308.682 317.335C307.897 316.191 308.514 310.891 308.433 309.196C313.87 305.874 319.853 303.096 325.469 300.055Z"/>
	<path fill="#2A2E3D" d="M326.543 318.324C325.763 318.461 324.916 318.521 324.123 318.509C322.436 318.483 320.572 317.922 319.427 316.622C318.781 315.888 318.421 314.954 318.545 313.972C318.665 313.011 319.291 312.175 320.08 311.641C321.633 310.587 323.755 310.537 325.541 310.826C327.157 311.559 329.425 312.364 330.044 314.227C330.248 314.841 330.134 315.48 329.791 316.021C329.107 317.099 327.686 317.84 326.543 318.324Z"/>
	<path fill="#ADBBC4" d="M307.189 328.342L307.539 328.103C309.122 331.246 307.133 334.801 308.016 337.903L307.147 338.411C301.03 342.088 294.791 345.499 288.543 348.943C285.594 350.569 282.676 352.417 279.663 353.906C279.623 353.17 279.413 352.483 279.365 351.757C279.19 349.113 279.318 346.453 279.131 343.805Q293.302 336.332 307.189 328.342Z"/>
	<path fill="#869EAB" d="M307.189 328.342L307.539 328.103C309.122 331.246 307.133 334.801 308.016 337.903L307.147 338.411C307.156 338.36 307.176 338.31 307.174 338.258C307.075 334.947 307.232 331.652 307.189 328.342Z"/>
	<path fill="#ADBBC4" d="M278.938 325.266C279.74 324.313 304.728 311.058 308.433 309.196C308.514 310.891 307.897 316.191 308.682 317.335L309.489 317.567C305.223 318.282 285.002 330.518 279.402 333.502L277.495 334.691C276.457 333.297 277.179 328.857 276.222 326.801C277.111 326.265 278.033 325.774 278.938 325.266Z"/>
	<path fill="#F4F5F7" d="M278.938 325.266L279.337 325.654C279.249 327.879 278.517 331.475 279.402 333.502L277.495 334.691C276.457 333.297 277.179 328.857 276.222 326.801C277.111 326.265 278.033 325.774 278.938 325.266Z"/>
	<path fill="#3C7F8B" d="M113.683 241.254C115.053 239.16 116.609 237.645 118.725 236.293C126.814 231.122 136.546 230.152 145.909 230.057C148.217 230.034 150.938 229.879 153.198 230.384L154.925 230.591C158.176 231.021 161.553 231.43 164.719 232.297C165.579 232.547 166.492 232.754 167.325 233.079C170.789 233.986 174.341 235.258 177.564 236.804C178.285 237.202 179.047 237.57 179.678 238.104C182.919 239.662 186.586 241.112 189.597 243.078C190.533 243.502 191.97 243.953 192.408 244.958C192.442 245.035 192.459 245.118 192.485 245.198C198.077 247.582 207.218 256.811 211.196 261.45C213.168 263.749 214.876 266.597 217.087 268.646C217.713 269.225 218.412 269.744 219.295 269.389C219.996 269.108 220.49 268.196 220.875 267.579C221.325 266.562 221.616 265.697 222.462 264.923C225.774 259.47 235.846 249.771 241.295 246.583C241.744 245.467 242.948 244.875 243.917 244.254C247.022 242.08 250.618 240.31 253.929 238.449C254.631 243.771 253.606 249.245 254.213 254.331C253.349 265.726 254.597 277.328 254.165 288.766C249.555 290.196 226.247 293.521 222.213 292.491C219.858 292.919 218.085 293.116 215.728 292.665C207.552 293.274 175.899 288.692 169.029 285.486C168.34 285.49 167.655 285.285 166.986 285.136C160.384 283.627 141.881 275.684 137.549 270.813C136.427 270.35 135.455 269.863 134.442 269.19C130.491 266.798 126.883 263.352 124.011 259.732C122.617 258.875 121.749 257.833 120.785 256.544C118.811 255.062 115.479 247.905 114.717 245.414C114.377 244.711 114.241 243.971 114.071 243.212L113.683 241.254Z"/>
	<defs>
		<linearGradient id="gradient_3" gradientUnits="userSpaceOnUse" x1="219.71637" y1="234.18614" x2="210.91969" y2="292.87335">
			<stop offset="0" stop-color="#2C6672"/>
			<stop offset="1" stop-color="#3F8590"/>
		</linearGradient>
	</defs>
	<path fill="url(#gradient_3)" d="M243.917 244.254C247.022 242.08 250.618 240.31 253.929 238.449C254.631 243.771 253.606 249.245 254.213 254.331C253.349 265.726 254.597 277.328 254.165 288.766C249.555 290.196 226.247 293.521 222.213 292.491C219.858 292.919 218.085 293.116 215.728 292.665C207.552 293.274 175.899 288.692 169.029 285.486C172.378 283.36 175.324 280.606 178.502 278.233C183.433 277.951 188.592 278.093 193.543 278.184C194.083 278.687 194.088 279.38 194.239 280.09C194.791 277.239 194.247 270.944 193.965 267.899C193.673 265.617 193.842 263.089 193.825 260.782C192.398 261.001 190.951 261.148 189.517 261.329C189.433 255.252 189.642 249.16 189.597 243.078C190.533 243.502 191.97 243.953 192.408 244.958C192.442 245.035 192.459 245.118 192.485 245.198C198.077 247.582 207.218 256.811 211.196 261.45C213.168 263.749 214.876 266.597 217.087 268.646C217.713 269.225 218.412 269.744 219.295 269.389C219.996 269.108 220.49 268.196 220.875 267.579C221.325 266.562 221.616 265.697 222.462 264.923C225.774 259.47 235.846 249.771 241.295 246.583C241.744 245.467 242.948 244.875 243.917 244.254Z"/>
	<path fill="#3C7F8B" d="M189.597 243.078C190.533 243.502 191.97 243.953 192.408 244.958C192.442 245.035 192.459 245.118 192.485 245.198C198.077 247.582 207.218 256.811 211.196 261.45C213.168 263.749 214.876 266.597 217.087 268.646C217.713 269.225 218.412 269.744 219.295 269.389C219.996 269.108 220.49 268.196 220.875 267.579C221.325 266.562 221.616 265.697 222.462 264.923C225.774 259.47 235.846 249.771 241.295 246.583C241.851 251.135 240.891 255.91 241.486 260.425C242.445 260.034 243.039 259.251 244.032 258.904L244.001 263.402C244.184 268.796 244.185 274.205 244.25 279.602C239.502 280.033 234.673 279.992 229.909 280.03L205.122 280.038C202.624 280.052 196.217 280.711 194.239 280.09C194.791 277.239 194.247 270.944 193.965 267.899C193.673 265.617 193.842 263.089 193.825 260.782C192.398 261.001 190.951 261.148 189.517 261.329C189.433 255.252 189.642 249.16 189.597 243.078Z"/>
	<defs>
		<linearGradient id="gradient_4" gradientUnits="userSpaceOnUse" x1="230.21326" y1="248.31407" x2="196.68649" y2="281.46152">
			<stop offset="0" stop-color="#C0DBE8"/>
			<stop offset="1" stop-color="white"/>
		</linearGradient>
	</defs>
	<path fill="url(#gradient_4)" d="M189.597 243.078C190.533 243.502 191.97 243.953 192.408 244.958C192.442 245.035 192.459 245.118 192.485 245.198C191.572 248.58 192.227 254.897 192.314 258.589C193.831 258.421 195.23 258.368 196.753 258.472Q196.767 267.846 197.085 277.215C211.892 277.027 226.689 277.253 241.495 276.977C241.432 273.687 241.29 270.375 241.394 267.086C234.571 267.494 227.709 267.104 220.875 267.579C221.325 266.562 221.616 265.697 222.462 264.923C225.774 259.47 235.846 249.771 241.295 246.583C241.851 251.135 240.891 255.91 241.486 260.425C242.445 260.034 243.039 259.251 244.032 258.904L244.001 263.402C244.184 268.796 244.185 274.205 244.25 279.602C239.502 280.033 234.673 279.992 229.909 280.03L205.122 280.038C202.624 280.052 196.217 280.711 194.239 280.09C194.791 277.239 194.247 270.944 193.965 267.899C193.673 265.617 193.842 263.089 193.825 260.782C192.398 261.001 190.951 261.148 189.517 261.329C189.433 255.252 189.642 249.16 189.597 243.078Z"/>
	<path fill="#3C7F8B" d="M222.462 264.923C225.774 259.47 235.846 249.771 241.295 246.583C241.851 251.135 240.891 255.91 241.486 260.425C241.457 261.762 241.284 263.301 241.581 264.6C235.218 264.784 228.826 264.989 222.462 264.923Z"/>
	<path fill="#D5ECEB" d="M241.486 260.425C242.445 260.034 243.039 259.251 244.032 258.904L244.001 263.402C243.808 262.719 243.72 261.99 243.116 261.551C242.525 261.471 242.49 261.388 242.017 261.733C241.807 262.683 241.857 263.68 241.581 264.6C241.284 263.301 241.457 261.762 241.486 260.425Z"/>
	<path fill="#85BAC1" d="M243.917 244.254C244.625 245.79 244.276 256.699 244.032 258.904C243.039 259.251 242.445 260.034 241.486 260.425C240.891 255.91 241.851 251.135 241.295 246.583C241.744 245.467 242.948 244.875 243.917 244.254Z"/>
	<path fill="#D5ECEB" d="M215.728 292.665C215.459 292.006 215.277 291.399 215.279 290.68C215.28 289.828 215.583 288.995 216.203 288.399C216.929 287.699 217.888 287.356 218.89 287.38C219.862 287.404 220.781 287.791 221.425 288.53C222.442 289.697 222.289 291.059 222.213 292.491C219.858 292.919 218.085 293.116 215.728 292.665Z"/>
	<path fill="#3C7F8B" d="M113.683 241.254C115.053 239.16 116.609 237.645 118.725 236.293C126.814 231.122 136.546 230.152 145.909 230.057C148.217 230.034 150.938 229.879 153.198 230.384L154.925 230.591C158.176 231.021 161.553 231.43 164.719 232.297C163.883 234.365 164.665 248.122 164.2 252.056C162.487 253.669 160.775 255.456 158.746 256.669C149.829 257.178 140.811 256.822 131.887 256.659C128.32 256.594 124.321 256.162 120.785 256.544C118.811 255.062 115.479 247.905 114.717 245.414C114.377 244.711 114.241 243.971 114.071 243.212L113.683 241.254Z"/>
	<path fill="#3C7F8B" d="M113.683 241.254C115.053 239.16 116.609 237.645 118.725 236.293C126.814 231.122 136.546 230.152 145.909 230.057C148.217 230.034 150.938 229.879 153.198 230.384L152.553 230.582C151.759 232.317 152.278 240.368 152.296 242.754C147.513 242.771 115.852 242.412 114.554 242.891C114.373 242.958 114.232 243.105 114.071 243.212L113.683 241.254Z"/>
	<path fill="#D5ECEB" d="M153.198 230.384L154.925 230.591C154.671 235.552 154.658 240.52 154.43 245.482C141.285 244.941 127.874 245.186 114.717 245.414C114.377 244.711 114.241 243.971 114.071 243.212C114.232 243.105 114.373 242.958 114.554 242.891C115.852 242.412 147.513 242.771 152.296 242.754C152.278 240.368 151.759 232.317 152.553 230.582L153.198 230.384Z"/>
	<path fill="#3C7F8B" d="M179.678 238.104C182.919 239.662 186.586 241.112 189.597 243.078C189.642 249.16 189.433 255.252 189.517 261.329C190.951 261.148 192.398 261.001 193.825 260.782C193.842 263.089 193.673 265.617 193.965 267.899C194.247 270.944 194.791 277.239 194.239 280.09C194.088 279.38 194.083 278.687 193.543 278.184C188.592 278.093 183.433 277.951 178.502 278.233C175.324 280.606 172.378 283.36 169.029 285.486C168.34 285.49 167.655 285.285 166.986 285.136C160.384 283.627 141.881 275.684 137.549 270.813C140.823 270.335 144.795 270.972 148.152 271.054Q157.91 271.286 167.665 270.974C171.419 267.435 175.547 264.518 179.723 261.51C180.362 256.637 180.035 247.501 179.491 242.604C179.497 241.096 179.567 239.608 179.678 238.104Z"/>
	<path fill="#D5ECEB" d="M193.801 275.72C193.745 273.125 193.748 270.485 193.965 267.899C194.247 270.944 194.791 277.239 194.239 280.09C194.088 279.38 194.083 278.687 193.543 278.184C188.592 278.093 183.433 277.951 178.502 278.233C175.324 280.606 172.378 283.36 169.029 285.486C168.34 285.49 167.655 285.285 166.986 285.136C169.426 281.542 173.835 278.384 177.124 275.485Q185.46 275.754 193.801 275.72Z"/>
	<path fill="#D5ECEB" d="M164.719 232.297C165.579 232.547 166.492 232.754 167.325 233.079C166.442 237.971 166.982 248.127 166.985 253.604C164.551 255.375 162.456 257.279 160.399 259.484C151.13 259.543 141.866 259.471 132.597 259.615C129.85 259.657 126.666 259.238 124.011 259.732C122.617 258.875 121.749 257.833 120.785 256.544C124.321 256.162 128.32 256.594 131.887 256.659C140.811 256.822 149.829 257.178 158.746 256.669C160.775 255.456 162.487 253.669 164.2 252.056C164.665 248.122 163.883 234.365 164.719 232.297Z"/>
	<path fill="#D5ECEB" d="M177.505 242.013C178.156 242.17 178.904 242.281 179.491 242.604C180.035 247.501 180.362 256.637 179.723 261.51C175.547 264.518 171.419 267.435 167.665 270.974Q157.91 271.286 148.152 271.054C144.795 270.972 140.823 270.335 137.549 270.813C136.427 270.35 135.455 269.863 134.442 269.19C138.745 267.224 156.914 268.541 162.666 268.533C163.97 268.531 165.342 268.378 166.533 267.821C168.868 266.729 175.035 261.846 176.995 259.926L177.505 242.013Z"/>
	<path fill="#F4F5F7" d="M177.564 236.804C178.285 237.202 179.047 237.57 179.678 238.104C179.567 239.608 179.497 241.096 179.491 242.604C178.904 242.281 178.156 242.17 177.505 242.013C177.57 240.272 177.614 238.546 177.564 236.804Z"/>
	<path fill="#F4F5F7" d="M110.594 204.904C110.286 211.08 109.84 217.222 109.713 223.409C103.775 226.135 98.1168 229.435 92.3694 232.534C84.6917 236.672 76.9727 240.7 69.3467 244.936C63.0315 248.444 54.9378 252.323 49.1245 256.225C47.9851 256.99 46.9981 257.858 46.295 259.059C45.5745 260.29 45.4539 261.544 45.8565 262.907C46.4281 264.842 47.7434 266.196 49.3559 267.317C51.4258 268.755 53.8509 269.802 56.0761 270.984L71.7501 279.178C75.6254 281.226 79.3957 283.472 83.2559 285.549Q98.3996 293.598 113.402 301.907C112.907 305.253 113.279 308.971 113.337 312.36Q113.44 318.638 113.326 324.916C113.308 326.599 113.468 328.541 113.23 330.198C105.006 325.548 96.6263 321.196 88.3311 316.678L38.4289 289.243C30.152 284.628 20.0514 280.052 12.3751 274.816C10.3112 273.409 8.41982 271.712 7.34002 269.411C6.48432 267.587 6.31684 265.769 7.03338 263.863C7.88934 261.587 9.58112 260.092 11.5532 258.807C15.5629 256.195 20.0828 254.111 24.3011 251.822L54.235 235.743L91.5816 215.243C97.8505 211.797 104.108 207.9 110.594 204.904Z"/>
	<path fill="#3C7F8B" d="M291.612 229.776C294.313 229.6 297.569 229.324 300.192 230.093L302.473 230.63C309.79 231.558 318.676 235.298 323.993 240.331C323.675 241.034 323.387 241.931 322.927 242.542L321.616 245.421C317.932 255.648 306.143 265.557 297.281 271.335C295.713 272.357 294.067 273.545 292.392 274.373C292.32 274.408 292.245 274.439 292.172 274.472C291.287 275.001 290.418 275.475 289.477 275.901C287.937 277.322 284.736 279.244 282.603 279.321C281.733 279.699 280.866 280.074 279.978 280.408C277.456 282.48 273.246 283.102 270.198 284.163Q268.696 284.645 267.2 285.148C264.946 286.529 259.448 287.856 256.83 288.118C255.944 288.357 255.066 288.588 254.165 288.766C254.597 277.328 253.349 265.726 254.213 254.331C253.606 249.245 254.631 243.771 253.929 238.449C254.813 237.716 256.046 237.288 257.085 236.806C260.218 235.433 263.65 234.578 266.93 233.641C267.74 233.16 268.903 232.961 269.812 232.696C269.839 232.688 269.866 232.682 269.893 232.674C272.348 231.956 274.835 231.53 277.35 231.081C278.212 230.887 279.131 230.809 280.007 230.682C283.075 230.203 286.244 230.075 289.341 229.813L291.612 229.776Z"/>
	<path fill="#3C7F8B" d="M291.612 229.776C294.313 229.6 297.569 229.324 300.192 230.093L302.473 230.63C309.79 231.558 318.676 235.298 323.993 240.331C323.675 241.034 323.387 241.931 322.927 242.542L321.616 245.421C317.932 255.648 306.143 265.557 297.281 271.335C295.713 272.357 294.067 273.545 292.392 274.373C292.32 274.408 292.245 274.439 292.172 274.472C291.054 272.027 291.75 244.765 291.736 239.918C291.608 236.537 291.609 233.16 291.612 229.776Z"/>
	<path fill="#3C7F8B" d="M302.473 230.63C309.79 231.558 318.676 235.298 323.993 240.331C323.675 241.034 323.387 241.931 322.927 242.542L321.616 245.421C315.289 244.85 308.778 245.825 302.491 244.954L302.452 243.009Q302.388 236.819 302.473 230.63Z"/>
	<path fill="#D5ECEB" d="M302.452 243.009C309.249 242.615 316.169 243.201 322.927 242.542L321.616 245.421C315.289 244.85 308.778 245.825 302.491 244.954L302.452 243.009Z"/>
	<defs>
		<linearGradient id="gradient_5" gradientUnits="userSpaceOnUse" x1="300.63943" y1="230.75352" x2="301.59552" y2="260.74695">
			<stop offset="0" stop-color="#C3E3F0"/>
			<stop offset="1" stop-color="white"/>
		</linearGradient>
	</defs>
	<path fill="url(#gradient_5)" d="M300.192 230.093L302.473 230.63Q302.388 236.819 302.452 243.009L302.491 244.954C302.518 248.047 302.435 251.148 302.404 254.242C303.318 254.587 304.18 255.017 304.899 255.695C305.479 256.242 305.884 256.916 305.859 257.734C305.83 258.699 305.196 259.48 304.474 260.063C303.356 260.968 301.789 261.531 300.344 261.332C299.408 261.202 298.518 260.668 297.98 259.889C297.455 259.127 297.1 258.034 297.316 257.11C297.595 255.92 298.712 255.194 299.659 254.556C299.747 251.511 299.349 231.789 299.867 230.48C299.929 230.324 300.084 230.222 300.192 230.093Z"/>
	<path fill="#3C7F8B" d="M266.93 233.641C267.168 238.52 267.133 243.396 267.061 248.279C266.984 253.045 266.409 283.177 267.2 285.148C264.946 286.529 259.448 287.856 256.83 288.118C255.944 288.357 255.066 288.588 254.165 288.766C254.597 277.328 253.349 265.726 254.213 254.331C253.606 249.245 254.631 243.771 253.929 238.449C254.813 237.716 256.046 237.288 257.085 236.806C260.218 235.433 263.65 234.578 266.93 233.641Z"/>
	<path fill="#D5ECEB" d="M254.213 254.331C255.127 254.073 256.018 253.847 256.957 253.701Q256.996 264.695 256.862 275.688C256.826 279.807 256.628 284.005 256.83 288.118C255.944 288.357 255.066 288.588 254.165 288.766C254.597 277.328 253.349 265.726 254.213 254.331Z"/>
	<path fill="#85BAC1" d="M257.085 236.806C256.723 242.2 256.376 248.334 256.957 253.701C256.018 253.847 255.127 254.073 254.213 254.331C253.606 249.245 254.631 243.771 253.929 238.449C254.813 237.716 256.046 237.288 257.085 236.806Z"/>
	<path fill="#3C7F8B" d="M280.007 230.682C283.075 230.203 286.244 230.075 289.341 229.813L291.612 229.776C291.609 233.16 291.608 236.537 291.736 239.918C291.75 244.765 291.054 272.027 292.172 274.472C291.287 275.001 290.418 275.475 289.477 275.901C287.937 277.322 284.736 279.244 282.603 279.321Q282.513 278.594 282.438 277.866C282.166 275.456 282.709 274.101 283.668 271.941C283.414 271.156 283.13 270.347 282.712 269.632C281.955 268.34 280.856 267.843 279.475 267.438C280.086 263.202 279.798 258.645 279.788 254.362C280.244 249.677 279.915 244.871 279.831 240.171C279.775 237.009 279.905 233.842 280.007 230.682Z"/>
	<path fill="#D5ECEB" d="M289.478 240.06L291.736 239.918C291.75 244.765 291.054 272.027 292.172 274.472C291.287 275.001 290.418 275.475 289.477 275.901C288.963 274.736 289.382 243.88 289.478 240.06Z"/>
	<path fill="#AFE1EB" d="M289.341 229.813L291.612 229.776C291.609 233.16 291.608 236.537 291.736 239.918L289.478 240.06C289.533 236.647 289.376 233.227 289.341 229.813Z"/>
	<path fill="#D5ECEB" d="M269.578 247.753C270.01 256.104 269.581 264.64 269.649 273.022C269.679 276.678 269.473 280.573 270.198 284.163Q268.696 284.645 267.2 285.148C266.409 283.177 266.984 253.045 267.061 248.279C267.729 247.955 268.839 247.889 269.578 247.753Z"/>
	<path fill="#D5ECEB" d="M277.35 231.081C278.212 230.887 279.131 230.809 280.007 230.682C279.905 233.842 279.775 237.009 279.831 240.171C279.915 244.871 280.244 249.677 279.788 254.362C279.798 258.645 280.086 263.202 279.475 267.438C278.795 267.588 278.089 267.712 277.425 267.92C277.581 264.202 277.319 260.37 277.307 256.638C276.864 248.221 277.323 239.527 277.35 231.081Z"/>
	<path fill="#AFE1EB" d="M277.35 231.081C278.212 230.887 279.131 230.809 280.007 230.682C279.905 233.842 279.775 237.009 279.831 240.171C279.915 244.871 280.244 249.677 279.788 254.362C279.563 250.765 279.639 247.042 279.755 243.439C279.132 243.346 278.208 243.457 277.671 243.779C276.666 247.827 278.308 252.559 277.307 256.638C276.864 248.221 277.323 239.527 277.35 231.081Z"/>
	<path fill="#F4F5F7" d="M279.475 267.438C280.856 267.843 281.955 268.34 282.712 269.632C283.13 270.347 283.414 271.156 283.668 271.941C282.709 274.101 282.166 275.456 282.438 277.866Q282.513 278.594 282.603 279.321C281.733 279.699 280.866 280.074 279.978 280.408C279.633 279.366 279.969 275.755 279.261 275.235C278.348 274.565 277.268 274.501 276.572 273.458C275.992 272.588 276.1 271.595 276.269 270.614C276.426 269.713 276.681 268.438 277.425 267.92C278.089 267.712 278.795 267.588 279.475 267.438Z"/>
	<defs>
		<linearGradient id="gradient_6" gradientUnits="userSpaceOnUse" x1="267.79352" y1="233.51349" x2="268.70541" y2="247.47025">
			<stop offset="0" stop-color="#9AB8C5"/>
			<stop offset="1" stop-color="#C5D7E0"/>
		</linearGradient>
	</defs>
	<path fill="url(#gradient_6)" d="M269.812 232.696C269.54 237.614 269.255 242.839 269.578 247.753C268.839 247.889 267.729 247.955 267.061 248.279C267.133 243.396 267.168 238.52 266.93 233.641C267.74 233.16 268.903 232.961 269.812 232.696Z"/>
	<path fill="#F4F5F7" d="M369.833 228.752C381.954 234.884 393.568 241.775 405.464 248.287L418.393 255.387C421.077 256.856 424.187 258.272 426.571 260.182C427.69 261.079 428.597 262.386 429.084 263.733C429.778 265.658 429.245 267.906 428.316 269.66C427.276 271.621 425.874 272.912 424.049 274.142C419.764 277.03 415.009 279.278 410.467 281.733L392.056 291.869C381.233 297.783 370.53 303.89 359.619 309.646C357.316 310.861 355.074 312.268 352.743 313.412C351.446 314.204 350.112 314.893 348.756 315.577C347.039 311.49 349.415 289.719 348.013 287.567C349.258 286.52 351.312 285.818 352.808 285.135L372.31 274.704C376.532 272.467 381.226 270.396 385.077 267.593C386.659 266.441 388.579 264.719 389.176 262.805C389.584 261.496 389.155 259.765 388.46 258.628C385.37 253.577 372.524 250.478 369.88 246.769C370.125 245.715 371.205 245.018 371.483 243.937C372.122 241.447 370.359 231.668 369.833 228.752Z"/>
	<path fill="#ADBBC4" d="M348.013 287.567C349.258 286.52 351.312 285.818 352.808 285.135C353.213 289.143 352.182 311.908 352.743 313.412C351.446 314.204 350.112 314.893 348.756 315.577C347.039 311.49 349.415 289.719 348.013 287.567Z"/>
	<path fill="#85BAC1" d="M207.934 220.484C202.565 217.172 196.632 214.343 191.074 211.328L159.359 193.996L80.1467 149.86L56.9822 136.974C53.3782 134.988 48.1849 132.793 45.1083 130.111C44.3083 129.414 43.8236 128.63 43.8042 127.55Q43.797 127.113 43.8758 126.683Q43.9547 126.253 44.1165 125.847Q44.2783 125.441 44.5168 125.075Q44.7553 124.708 45.0612 124.396C47.4235 122.027 58.8192 116.557 62.3934 114.553L107.83 88.9347L171.727 53.2465L193.106 41.3642C197.501 38.9028 201.868 36.172 206.437 34.0629C210.557 32.1615 214.585 31.7373 219.066 31.7368C217.201 33.0209 214.939 33.8899 212.953 35.0245C208.166 37.7594 203.444 40.6347 198.678 43.4123C186.987 50.2265 175.315 57.1264 163.539 63.7898Q152.23 70.1847 141.01 76.7346C136.94 79.0984 132.756 81.3834 128.785 83.906C122.541 87.0703 116.484 90.6086 110.368 94.0149L80.1888 110.922L65.6326 119.166C61.4188 121.552 57.2358 123.658 53.5059 126.791C68.3138 134.361 82.7658 142.701 97.2936 150.793L171.073 192.095Q185.831 200.536 200.71 208.76C204.042 210.61 207.309 213.222 210.935 214.434C210.036 216.258 209.16 218.978 207.934 220.484Z"/>
	<path fill="#F4F5F7" d="M5.04357 271.101C6.70586 273.815 8.60101 275.892 11.3119 277.593C16.6264 280.928 22.4775 283.658 28.0158 286.631L53.8367 300.701L120.074 336.897L171.476 365.164L186.223 373.332C190.66 375.828 195.103 378.529 199.854 380.396C212.2 385.247 228.004 383.978 239.992 378.804C240.094 381.052 240.121 383.425 240.862 385.571C237.791 387.411 234.343 388.392 230.862 389.116C220.864 391.193 209.59 391.232 199.868 387.809C195.467 386.259 191.438 383.807 187.39 381.526Q179.965 377.317 172.492 373.192L105.647 336.434L37.9055 299.506L20.806 290.25C17.3635 288.398 13.748 286.649 10.4896 284.489C4.94192 280.811 6.14684 276.701 5.04357 271.101Z"/>
	<path fill="#ED9A60" d="M350.701 192.12C353.157 192.741 355.768 193.101 358.302 192.955Q360.238 192.577 362.181 192.236L366.508 225.803C367.272 231.637 368.276 237.492 368.833 243.345L368.649 243.652C367.32 245.904 366.894 250.113 363.962 250.82C363.378 250.961 363.198 250.918 362.647 250.737L362.151 250.641C362.016 251.031 361.946 251.262 361.678 251.584C361.545 251.081 361.509 250.842 361.121 250.464C361.039 250.384 360.946 250.317 360.859 250.243C360.798 250.895 360.914 251.595 360.369 252.035C358.657 253.415 353.582 252.509 351.534 252.309C351.401 249.388 351.574 246.484 351.726 243.568L351.406 243.838C351.042 243.245 351.42 242.217 351.308 241.471L350.748 241.578C350.428 242.051 350.479 242.54 350.464 243.09L350.458 243.366C350.222 242.524 350.273 241.509 350.227 240.631C349.548 243.934 349.652 247.726 349.515 251.094C346.475 250.44 343.975 249.993 341.463 248.056C341.309 242.245 342.638 236.349 343.643 230.653C344.958 223.204 346.006 215.698 347.45 208.273C348.494 202.906 350.071 197.552 350.701 192.12Z"/>
	<path fill="#F4DCCE" d="M358.302 192.955Q360.238 192.577 362.181 192.236L366.508 225.803C367.272 231.637 368.276 237.492 368.833 243.345L368.649 243.652C367.32 245.904 366.894 250.113 363.962 250.82C363.378 250.961 363.198 250.918 362.647 250.737L362.151 250.641C362.016 251.031 361.946 251.262 361.678 251.584C361.545 251.081 361.509 250.842 361.121 250.464C361.039 250.384 360.946 250.317 360.859 250.243C360.675 247.708 360.749 245.104 360.717 242.56Q360.346 234.772 359.857 226.991C359.734 224.818 359.329 222.222 359.56 220.088C359.629 219.454 359.71 219.389 360.166 218.995C360.42 217.191 360.007 214.779 359.898 212.925Q359.317 202.923 358.302 192.955Z"/>
	<path fill="#050200" d="M360.717 242.56Q360.346 234.772 359.857 226.991C359.734 224.818 359.329 222.222 359.56 220.088C359.629 219.454 359.71 219.389 360.166 218.995Q361.507 230.13 362.096 241.331C361.654 241.78 361.235 242.194 360.717 242.56Z"/>
	<path fill="#392525" d="M362.096 241.331C362.562 244.383 362.479 247.646 362.647 250.737L362.151 250.641C362.016 251.031 361.946 251.262 361.678 251.584C361.545 251.081 361.509 250.842 361.121 250.464C361.039 250.384 360.946 250.317 360.859 250.243C360.675 247.708 360.749 245.104 360.717 242.56C361.235 242.194 361.654 241.78 362.096 241.331Z"/>
	<path fill="#050200" d="M353.099 216.069C353.525 219.251 353.16 222.547 352.941 225.736C352.535 231.649 351.835 237.647 351.726 243.568L351.406 243.838C351.042 243.245 351.42 242.217 351.308 241.471L350.748 241.578C350.428 242.051 350.479 242.54 350.464 243.09L350.458 243.366C350.222 242.524 350.273 241.509 350.227 240.631C350.6 233.601 351.157 222.625 353.099 216.069Z"/>
	<path fill="#D5ECEB" d="M350.874 155.56C351.088 155.594 350.932 155.554 351.253 155.857C351.265 160.738 351.461 165.739 350.971 170.599C349.172 171.141 347.88 171.727 346.69 173.272C344.301 176.375 344.056 182.271 344.663 186.023C345.088 188.653 346.466 189.692 348.487 191.169C346.414 197.284 346.232 204.028 344.331 210.21C340.725 208.01 337.147 205.815 333.401 203.857Q329.604 201.783 325.986 199.409C325.486 195.699 325.375 191.916 324.928 188.19C324.263 182.65 323.156 177.22 321.98 171.771C325.776 168.992 330.439 166.845 334.548 164.547C339.951 161.527 345.267 158.179 350.874 155.56Z"/>
	<path fill="#D5ECEB" d="M239.992 378.804C241.908 377.662 243.991 376.749 245.958 375.687L260.114 367.977L295.483 348.452L326.654 331.041C335.112 326.265 343.473 321.372 352.163 317.021C351.905 318.933 351.844 321.201 351.096 322.979L350.848 323.11C350.492 321.668 352.016 319.571 350.893 318.385C350.266 318.495 349.491 318.87 349.203 319.489C348.736 320.489 348.967 323.867 349.237 324.948C350.147 325.113 351.622 323.623 353.029 323.648C346.625 327.711 339.654 331.023 333.009 334.668L293.405 356.569L260.796 374.666C254.516 378.206 247.371 382.742 240.862 385.571C240.121 383.425 240.094 381.052 239.992 378.804Z"/>
	<path fill="#3C7F8B" d="M210.935 214.434C215.529 214.385 219.57 215.341 224.211 214.165C229.999 212.698 244.538 203.855 250.389 200.612L292.949 177.088C294.583 176.185 304.104 170.806 305.388 170.645C306.878 170.459 309.494 173.176 310.494 174.095C310.608 174.459 310.729 174.52 310.53 174.876C309.768 176.247 302.088 180.467 300.297 181.489C296.279 183.785 292.04 185.716 287.972 187.93L256.979 204.869C248.355 209.482 239.861 214.637 231.046 218.851C228.614 220.014 226.237 220.828 223.598 221.384C219.816 222.18 211.872 222.924 208.416 220.875C208.196 220.744 208.159 220.685 207.934 220.484C209.16 218.978 210.036 216.258 210.935 214.434Z"/>
	<path fill="#ED9A60" d="M230.894 121.723C231.038 121.735 231.182 121.743 231.326 121.761C232.6 121.919 233.921 122.659 235.05 123.236C239.85 125.691 244.466 128.474 249.189 131.069L278.324 146.982L298.147 157.908C302.625 160.363 307.281 162.724 311.571 165.493C313.924 167.012 316.296 169.117 317.962 171.375C321.711 176.457 324.207 207.456 323.154 214.25C322.472 214.515 322.1 214.349 321.391 214.219Q319.583 213.76 317.758 213.373C317.478 208.575 317.597 203.766 317.358 198.969C317.092 193.638 316.422 188.319 315.727 183.029C315.406 180.588 315.195 177.353 314.103 175.156C312.686 172.307 309.23 169.86 306.669 168.122C301.839 164.844 296.278 162.309 291.19 159.428L246.373 134.588C241.16 131.662 235.594 129.025 230.555 125.836C229.742 125.321 228.575 124.605 228.102 123.753L228.292 123.168C229.026 122.42 229.945 122.118 230.894 121.723Z"/>
	<path fill="#F4F5F7" d="M352.163 317.021L401.284 289.823L416.26 281.759C419.414 280.056 422.734 278.447 425.656 276.366C427.85 274.803 429.408 273.157 430.552 270.709C430.503 274.123 430.957 279.148 428.27 281.776C426.902 283.113 425.052 284.264 423.403 285.224C418.252 288.222 412.856 290.877 407.62 293.732L376.069 311.106L360.283 319.814C358.083 321.027 355.407 322.906 353.029 323.648C351.622 323.623 350.147 325.113 349.237 324.948C348.967 323.867 348.736 320.489 349.203 319.489C349.491 318.87 350.266 318.495 350.893 318.385C352.016 319.571 350.492 321.668 350.848 323.11L351.096 322.979C351.844 321.201 351.905 318.933 352.163 317.021Z"/>
	<path fill="#ED9A60" d="M215.639 109.835C215.674 109.83 215.708 109.823 215.742 109.82C221.747 109.292 230.222 110.345 235.029 114.352C237.547 116.45 237.569 118.82 237.878 121.816C235.663 120.95 232.652 119.46 230.248 119.579C228.5 119.666 225.462 121.711 224.4 123.058C223.998 123.568 223.93 123.861 223.982 124.492C225.037 126.279 227.374 127.215 229.147 128.182C229.204 128.308 229.186 128.579 229.193 128.721C228.923 128.902 228.722 128.968 228.403 129.042C226.766 129.42 225.04 129.468 223.367 129.565C217.266 129.922 211.215 129.664 205.915 126.23C203.84 124.884 201.844 122.88 201.364 120.368C201.047 118.714 201.497 117.115 202.501 115.78C205.349 111.989 211.193 110.445 215.639 109.835Z"/>
	<path fill="#85BAC1" d="M120.032 175.126C123.084 176.76 126.214 178.305 129.019 180.345C119.875 196.249 117.841 215.44 114.476 233.19C114.069 235.641 113.657 238.077 113.106 240.501C112.367 234.763 112.342 228.916 112.391 223.136C112.542 205.535 114.552 191.862 120.032 175.126Z"/>
	<path fill="#F4F5F7" d="M326.238 203.304C328.092 204.01 329.959 205.254 331.715 206.215C335.799 208.449 339.897 210.654 343.876 213.072C343.176 218.378 342.104 223.679 341.18 228.955L340.591 231.447C336.211 228.589 331.429 226.21 326.815 223.75C326.249 216.988 326.365 210.09 326.238 203.304Z"/>
	<path fill="#ED9A60" d="M357.153 190.329C355.04 190.543 353.082 190.384 351.163 189.399C349.592 188.593 348.272 187.2 347.761 185.487C346.859 182.462 347.101 178.263 348.731 175.546C349.226 174.722 349.597 174.317 350.542 174.1L350.746 174.299C350.47 174.803 350.179 175.312 349.946 175.837C349.61 176.597 349.415 177.364 349.764 178.159C350.261 179.286 351.554 179.911 352.639 180.353C355.896 181.678 358.829 180.977 361.948 179.694C363.344 177.897 363.494 177.182 363.666 174.913C364.347 175.377 364.775 176.234 365.217 176.918C365.321 180.337 366.164 185.206 363.574 187.909C361.986 189.567 359.39 190.282 357.153 190.329Z"/>
	<path fill="#F4DCCE" d="M361.948 179.694C363.344 177.897 363.494 177.182 363.666 174.913C364.347 175.377 364.775 176.234 365.217 176.918C365.321 180.337 366.164 185.206 363.574 187.909C361.986 189.567 359.39 190.282 357.153 190.329C358.187 187.181 362.208 186.006 362.682 182.38C362.844 181.142 362.664 180.646 361.948 179.694Z"/>
	<path fill="#ED9A60" d="M359.517 151.036C360.272 152.138 359.923 174.228 360.187 177.553C358.141 178.12 356.653 178.218 354.55 177.88L353.828 177.343C352.936 174.823 354.374 158.652 353.758 154.057L359.517 151.036Z"/>
</svg>
